<?xml version="1.0" encoding="utf-8"?>
<!-- Generator: Adobe Illustrator 16.0.0, SVG Export Plug-In . SVG Version: 6.00 Build 0)  -->
<!DOCTYPE svg PUBLIC "-//W3C//DTD SVG 1.1//EN" "http://www.w3.org/Graphics/SVG/1.1/DTD/svg11.dtd">
<svg version="1.1" id="Layer_1" xmlns="http://www.w3.org/2000/svg" xmlns:xlink="http://www.w3.org/1999/xlink" x="0px" y="0px"
	 width="17.167px" height="15.59px" viewBox="5 -0.697 17.167 15.59" enable-background="new 5 -0.697 17.167 15.59"
	 xml:space="preserve">
<path fill="#504C4D" d="M21.992,3.667c0,0-0.168-1.183-0.684-1.704c-0.652-0.685-1.385-0.687-1.721-0.728
	c-2.398-0.173-6.004-0.173-6.004-0.173h-0.006c0,0-3.604,0-6.006,0.174c-0.334,0.04-1.066,0.042-1.719,0.727
	c-0.513,0.521-0.68,1.704-0.68,1.704S5,5.055,5,6.445v1.301c0,1.391,0.173,2.777,0.173,2.777s0.167,1.184,0.681,1.704
	c0.653,0.685,1.511,0.662,1.893,0.734c1.374,0.131,5.836,0.172,5.836,0.172s3.605-0.006,6.008-0.18
	c0.336-0.041,1.066-0.045,1.72-0.729c0.517-0.521,0.685-1.704,0.685-1.704s0.172-1.392,0.172-2.775V6.444
	C22.164,5.055,21.992,3.667,21.992,3.667z M11.691,9.323V4.501L16.33,6.92L11.691,9.323z"/>
</svg>
