<?xml version="1.0" encoding="utf-8"?>
<!-- Generator: Adobe Illustrator 16.0.0, SVG Export Plug-In . SVG Version: 6.00 Build 0)  -->
<!DOCTYPE svg PUBLIC "-//W3C//DTD SVG 1.1//EN" "http://www.w3.org/Graphics/SVG/1.1/DTD/svg11.dtd">
<svg version="1.1" id="Layer_1" xmlns="http://www.w3.org/2000/svg" xmlns:xlink="http://www.w3.org/1999/xlink" x="0px" y="0px"
	 width="9.469px" height="17.981px" viewBox="0 0 9.469 17.981" enable-background="new 0 0 9.469 17.981" xml:space="preserve">
<g>
	<path d="M4.387,5.869C4.384,6.45,3.852,7.076,3.163,7.076v9.853c0,1.403-1.907,1.403-1.91,0V7.076C0.583,7.076-0.001,6.558,0,5.787
		v-5.43c-0.001-0.471,0.681-0.489,0.686,0.019v4.013h0.567v-4.05c0-0.433,0.657-0.461,0.658,0.019v4.031h0.584v-4.04
		C2.5-0.108,3.138-0.127,3.135,0.366v4.022H3.72v-4.04C3.718-0.104,4.385-0.122,4.388,0.366L4.387,5.869L4.387,5.869z"/>
	<path d="M9.469,1.619v15.31c0.003,1.367-1.908,1.348-1.91,0v-6.078H6.545V1.619C6.543-0.53,9.472-0.53,9.469,1.619L9.469,1.619z"/>
</g>
</svg>
