<?xml version="1.0" standalone="no"?>
<!DOCTYPE svg PUBLIC "-//W3C//DTD SVG 1.1//EN" "http://www.w3.org/Graphics/SVG/1.1/DTD/svg11.dtd" >
<svg xmlns="http://www.w3.org/2000/svg">
<metadata></metadata>
<defs>
<font id="futurano2dregular" horiz-adv-x="915" >
<font-face units-per-em="2048" ascent="1666" descent="-382" />
<missing-glyph horiz-adv-x="512" />
<glyph unicode="&#xfb01;" horiz-adv-x="872" d="M34 755v98h130v415q0 75 5.5 112t22.5 70q53 103 196 103q71 0 147 -38v-125q-69 59 -138 59q-64 0 -91 -43t-27 -142v-411h494v-853h-115v755h-379v-755h-115v755h-130zM633 1228q0 32 24.5 55t58.5 23t57.5 -23t23.5 -57q0 -33 -24 -57t-58 -24t-58 24.5t-24 58.5z" />
<glyph unicode="&#xfb02;" horiz-adv-x="872" d="M34 755v98h130v415q0 75 5.5 112t22.5 70q53 103 196 103q71 0 147 -38v-125q-69 59 -139 59q-63 0 -90 -43t-27 -142v-411h256v-98h-256v-755h-115v755h-130zM658 0v1536h115v-1536h-115z" />
<glyph unicode="&#xfb03;" horiz-adv-x="1454" d="M34 755v98h130v415q0 75 5.5 112t22.5 70q53 103 196 103q71 0 147 -38v-125q-69 59 -138 59q-64 0 -91 -43t-27 -142v-411h423v415q0 75 5.5 112t22.5 70q53 103 196 103q71 0 147 -38v-125q-69 59 -138 59q-64 0 -91 -43t-27 -142v-411h537v-853h-115v755h-422v-755 h-115v755h-423v-755h-115v755h-130zM1215 1228q0 32 24.5 55t58.5 23t57.5 -23t23.5 -57q0 -33 -24 -57t-58 -24t-58 24.5t-24 58.5z" />
<glyph horiz-adv-x="0" />
<glyph horiz-adv-x="682" />
<glyph unicode=" "  horiz-adv-x="512" />
<glyph unicode="&#x09;" horiz-adv-x="512" />
<glyph unicode="&#xa0;" horiz-adv-x="512" />
<glyph unicode="!" horiz-adv-x="476" d="M137 91q0 41 30 70t72 29t71.5 -29t29.5 -71q0 -41 -29.5 -70.5t-71.5 -29.5q-43 0 -72.5 29.5t-29.5 71.5zM175 345v1020h126v-1020h-126z" />
<glyph unicode="&#x22;" horiz-adv-x="546" d="M68 1365h137l-39 -491h-68zM341 1365h137l-39 -491h-68z" />
<glyph unicode="#" d="M-1 349l19 96h191l92 475h-191l19 96h191l68 349h102l-68 -349h201l67 349h103l-68 -349h191l-18 -96h-192l-92 -475h191l-19 -96h-191l-68 -349h-102l68 349h-200l-68 -349h-103l68 349h-191zM311 445h201l92 475h-200z" />
<glyph unicode="$" d="M76 261l107 54q47 -121 91 -165q53 -51 124 -61v597q-81 38 -135 80q-146 113 -146 291q0 145 95 238q72 70 186 91v177h108v-177q201 -20 294 -237l-108 -54q-62 160 -186 181v-506q115 -67 158 -103q149 -125 149 -306q0 -160 -95 -268q-77 -88 -212 -113v-205h-108 v205q-233 14 -322 281zM243 1063q0 -156 155 -235v448q-48 -10 -77 -36q-78 -71 -78 -177zM506 89q87 26 133.5 90.5t46.5 162.5q0 94 -41 158t-139 126v-537z" />
<glyph unicode="%" horiz-adv-x="1476" d="M48 958q0 201 66 310t186 109q124 0 188.5 -108t64.5 -315q0 -201 -66 -310.5t-188 -109.5q-251 0 -251 424zM140 951q0 -339 159 -339q81 0 119 83q43 93 43 248q0 356 -159 356q-162 0 -162 -348zM369 2l625 1365h112l-629 -1365h-108zM922 412q0 200 66 309.5 t186 109.5q124 0 188.5 -108t64.5 -315q0 -201 -66 -310.5t-187 -109.5q-252 0 -252 424zM1014 405q0 -339 159 -339q81 0 119 83q43 94 43 248q0 356 -159 356q-162 0 -162 -348z" />
<glyph unicode="&#x26;" horiz-adv-x="1182" d="M75 367q0 184 165 332q44 40 130 101q-78 104 -110 175.5t-32 142.5q0 102 67 173q77 82 201 82q136 0 217 -93q61 -71 61 -168q0 -91 -52.5 -166t-181.5 -169l334 -421q51 60 128 189l94 -67q-85 -133 -152 -211l210 -267h-153l-138 174q-109 -100 -203.5 -145.5 t-196.5 -45.5q-153 0 -260 94q-60 52 -94 129.5t-34 160.5zM201 370q0 -118 83 -202q77 -78 180 -78q79 0 167 46.5t161 127.5l-350 446q-115 -69 -178 -158t-63 -182zM348 1117q0 -119 126 -252q176 125 176 240q0 69 -43.5 115t-109.5 46q-64 0 -106.5 -42t-42.5 -107z " />
<glyph unicode="'" horiz-adv-x="273" d="M68 1365h137l-39 -491h-68z" />
<glyph unicode="(" horiz-adv-x="550" d="M158 609q0 227 58 482.5t167 506.5l70 -36q-98 -310 -134.5 -510.5t-36.5 -423.5q0 -528 180 -972l-68 -38q-91 179 -146 382q-90 331 -90 609z" />
<glyph unicode=")" horiz-adv-x="550" d="M89 -344q180 442 180 972q0 223 -37 425t-134 509l70 36q88 -204 138 -394q87 -326 87 -595q0 -241 -63.5 -508.5t-172.5 -482.5z" />
<glyph unicode="*" horiz-adv-x="659" d="M75 1153l24 72l202 -74l-10 214h76l-9 -214l202 71l23 -73l-206 -52l134 -173l-61 -45l-122 183l-118 -180l-62 45l134 170z" />
<glyph unicode="+" d="M61 625v116h338v338h116v-338h338v-116h-338v-338h-116v338h-338z" />
<glyph unicode="," horiz-adv-x="410" d="M-1 -291l177 475l121 -45l-220 -465z" />
<glyph unicode="-" horiz-adv-x="363" d="M0 373v106h363v-106h-363z" />
<glyph unicode="." horiz-adv-x="410" d="M108 85q0 39 28.5 67t67.5 28q41 0 69.5 -28.5t28.5 -69.5q0 -40 -28.5 -68t-68.5 -28t-68.5 29t-28.5 70z" />
<glyph unicode="/" horiz-adv-x="870" d="M-41 -382l779 1918h111l-778 -1918h-112z" />
<glyph unicode="0" d="M61 688q0 346 115 532q101 165 281 165q211 0 312 -216q84 -180 84 -489q0 -369 -129 -556q-98 -144 -269 -144t-271 143q-123 176 -123 565zM188 674q0 -153 24 -283.5t63 -193.5q67 -108 180 -108q136 0 201 148q70 160 70 423q0 350 -81 492q-72 124 -185 124 q-127 0 -199 -139q-32 -63 -52.5 -193t-20.5 -270z" />
<glyph unicode="1" d="M212 1256l54 109h260v-1365h-123v1256h-191z" />
<glyph unicode="2" d="M86 0l412 574q73 101 120 186q71 127 71 259q0 117 -67 192q-59 66 -162 66q-83 0 -144.5 -45.5t-85.5 -125.5q-13 -43 -17 -148h-127q2 153 45 241q93 187 325 187q173 0 272 -110q88 -97 88 -259q0 -212 -179 -462l-320 -446h485v-109h-716z" />
<glyph unicode="3" d="M62 322h127q7 -91 49 -144q71 -89 201 -89q132 0 208 92q57 70 57 178q0 84 -34.5 153t-92.5 102q-51 30 -186 36v110h34q126 1 188 70q67 74 67 197q0 131 -78 198q-59 52 -152 52q-205 0 -229 -219h-127q6 111 53 186q89 142 300 142q171 0 265 -93q95 -95 95 -257 q0 -245 -215 -332q239 -84 239 -334q0 -207 -126 -308q-102 -82 -270 -82q-173 0 -270.5 89.5t-102.5 252.5z" />
<glyph unicode="4" d="M44 307l697 1140v-1031h135v-109h-135v-307h-123v307h-574zM255 416h354v352q0 127 9 275q-37 -77 -103 -191l-48 -84z" />
<glyph unicode="5" d="M57 176l85 76q68 -91 128 -127.5t138 -36.5q156 0 243 128q60 87 60 209q0 178 -119 270q-84 64 -208 64q-126 0 -264 -83l145 689h554v-109h-452l-87 -408q74 20 139 20q129 0 226 -62q101 -64 150 -173q43 -96 43 -205q0 -192 -116 -316q-125 -133 -317 -133 q-220 0 -348 197z" />
<glyph unicode="6" d="M55 392q0 111 36 197t149 245l402 565l100 -73l-411 -573q74 32 144 32q189 0 302 -143q84 -105 84 -257q0 -186 -117 -298q-111 -107 -284 -107q-190 0 -304 126q-101 112 -101 286zM182 388q0 -146 96 -229q80 -70 183 -70q134 0 213 103q60 78 60 192q0 121 -70 204 q-75 88 -209 88q-140 0 -214 -103q-59 -82 -59 -185z" />
<glyph unicode="7" d="M82 0l639 1256h-627v109h824l-698 -1365h-138z" />
<glyph unicode="8" d="M82 374q0 123 44.5 201t147.5 137q-58 46 -85 83q-65 90 -65 225q0 165 100 265q44 45 110.5 73t126.5 28q66 0 136 -32t113 -82q82 -96 82 -258q0 -104 -33.5 -170t-120.5 -132q194 -103 194 -334q0 -175 -95 -280q-49 -54 -124.5 -86t-154.5 -32q-77 0 -151 30t-126 82 q-99 100 -99 282zM209 373q0 -128 67 -206t175 -78q116 0 188 83q66 77 66 198q0 132 -70 206q-67 73 -179 73q-104 0 -171 -66q-76 -74 -76 -210zM251 1021q0 -130 66 -200q58 -60 142 -60q90 0 148 71t58 181q0 116 -55 188q-59 76 -155 76q-89 0 -146.5 -72.5 t-57.5 -183.5z" />
<glyph unicode="9" d="M55 979q0 178 110 291q113 115 290 115q207 0 322 -148q84 -108 84 -256q0 -106 -41.5 -206.5t-140.5 -234.5l-425 -574l-101 76l422 564q-72 -27 -135 -27q-182 0 -291 125q-94 109 -94 275zM182 981q0 -145 88 -229q66 -64 180 -64q159 0 227 98q57 81 57 188 q0 125 -73 209q-81 93 -204 93q-141 0 -220 -115q-55 -79 -55 -180z" />
<glyph unicode=":" horiz-adv-x="410" d="M108 85q0 39 28.5 67t67.5 28q41 0 69.5 -28.5t28.5 -69.5q0 -40 -28.5 -68t-68.5 -28t-68.5 29t-28.5 70zM108 436q0 39 28.5 67t67.5 28q41 0 69.5 -28.5t28.5 -69.5q0 -40 -28.5 -68t-68.5 -28t-68.5 29t-28.5 70z" />
<glyph unicode=";" horiz-adv-x="410" d="M1 -291l177 475l121 -45l-220 -465zM107 436q0 39 28.5 67t67.5 28q41 0 69.5 -28.5t28.5 -69.5q0 -40 -28.5 -68t-68.5 -28t-68.5 29t-28.5 70z" />
<glyph unicode="&#x3c;" horiz-adv-x="1024" d="M68 636v103l887 405v-116l-761 -341l761 -340v-116z" />
<glyph unicode="=" d="M61 433v116h792v-116h-792zM61 816v116h792v-116h-792z" />
<glyph unicode="&#x3e;" horiz-adv-x="1024" d="M69 231v116l761 340l-761 341v116l887 -405v-104z" />
<glyph unicode="?" horiz-adv-x="739" d="M96 1096q2 98 28 156q28 64 93 102t146 38q120 0 196 -77q71 -72 71 -188q0 -135 -104 -239q-28 -29 -110 -96q-101 -82 -134 -127.5t-33 -104.5q0 -51 29 -83.5t74 -32.5q102 0 105 140h117v-19q0 -63 -25 -113q-59 -116 -194 -116q-115 0 -178 85q-47 63 -47 151 q0 112 80 202q21 23 161 135q70 57 102 110t32 114q0 67 -40 109t-103 42q-86 0 -122 -67q-16 -29 -26 -121h-118zM265 92q0 41 29 70.5t70 29.5q42 0 72 -30t30 -72q0 -41 -29 -69.5t-71 -28.5t-71.5 29t-29.5 71z" />
<glyph unicode="@" horiz-adv-x="1434" d="M39 681q0 197 94 359q90 154 245 245q168 100 369 100q199 0 359 -96q134 -81 210 -211q79 -137 79 -300q0 -109 -37.5 -212.5t-102.5 -174.5q-38 -41 -91 -65.5t-105 -24.5q-39 0 -74 17.5t-53 46.5q-7 12 -20 46q-65 -66 -115 -90t-123 -24q-142 0 -233 101 q-92 100 -92 255q0 177 116 288q101 97 239 97q79 0 136 -28.5t108 -94.5l13 107h117l-54 -446q-6 -53 -6 -91q0 -72 60 -72q31 0 58 17q56 37 90 101q56 109 56 236q0 231 -156 373q-153 139 -379 139q-249 0 -418 -174q-167 -173 -167 -424q0 -224 133 -390 q167 -208 465 -208q123 0 221.5 28.5t217.5 97.5l41 -102q-232 -127 -478 -127q-267 0 -451 139q-123 92 -194 233q-78 153 -78 329zM481 644q0 -101 51 -167t132 -66q106 0 182 87q35 39 56 94.5t21 105.5q0 98 -65 155q-65 58 -151 58q-98 0 -162 -75t-64 -192z" />
<glyph unicode="A" horiz-adv-x="1181" d="M7 0l582 1410l592 -1410h-130l-172 410h-572l-170 -410h-130zM351 516h483l-121 292q-89 212 -123 308q-23 -72 -106 -278z" />
<glyph unicode="B" horiz-adv-x="904" d="M130 0v1365h221q173 0 262 -51q62 -36 99 -90q64 -91 64 -218q0 -100 -45 -174t-128 -112q103 -26 168 -119.5t65 -214.5q0 -164 -93 -269q-89 -100 -239 -113q-46 -4 -132 -4h-242zM253 109h174q109 0 175 47q107 76 107 225q0 129 -76 200.5t-214 71.5h-166v-544z M253 762h85q116 0 170 20q65 24 103 84t38 141q0 97 -56 166q-68 83 -246 83h-94v-494z" />
<glyph unicode="C" horiz-adv-x="1204" d="M68 680q0 181 91 344q102 184 280 279q156 83 346 83q180 0 337 -76v-135q-165 102 -341 102q-162 0 -297 -80q-140 -82 -216 -229q-68 -131 -68 -286q0 -265 187 -438q167 -155 401 -155q167 0 334 104v-138q-155 -75 -340 -75q-338 0 -544 244q-170 201 -170 456z" />
<glyph unicode="D" horiz-adv-x="1198" d="M130 0v1365h196q128 0 200 -7q207 -21 336 -116q139 -102 210 -265q58 -133 58 -292q0 -250 -140 -435q-157 -207 -394 -238q-96 -12 -198 -12h-268zM253 109h139q125 0 184 9q201 29 320 200q101 146 101 362q0 232 -118 383q-125 161 -369 186q-73 7 -183 7h-74v-1147z " />
<glyph unicode="E" horiz-adv-x="874" d="M130 0v1365h662v-109h-539v-468h539v-109h-539v-570h539v-109h-662z" />
<glyph unicode="F" horiz-adv-x="842" d="M130 0v1365h651v-109h-528v-468h528v-109h-528v-679h-123z" />
<glyph unicode="G" horiz-adv-x="1493" d="M68 681q0 162 69 306q93 194 275 301q166 97 371 97q334 0 553 -247l-81 -94q-64 86 -148 139q-149 93 -322 93q-300 0 -467 -228q-118 -160 -118 -369q0 -249 161 -411q93 -94 220 -141q104 -38 215 -38q184 0 318 101q89 67 133.5 159t59.5 242h-368v109h486v-42 q0 -193 -80 -353q-76 -155 -224 -240q-146 -85 -334 -85q-243 0 -428 130q-139 98 -217 256q-74 149 -74 315z" />
<glyph unicode="H" horiz-adv-x="1256" d="M130 0v1365h123v-566h751v566h123v-1365h-123v690h-751v-690h-123z" />
<glyph unicode="I" horiz-adv-x="382" d="M130 0v1365h123v-1365h-123z" />
<glyph unicode="J" horiz-adv-x="635" d="M-15 96l80 72q53 -45 85 -60.5t73 -15.5q51 0 95 29.5t59 74.5q18 51 18 159v1010h123v-1012q0 -52 -11.5 -118.5t-25.5 -101.5q-26 -62 -97 -106q-73 -44 -159 -44q-139 0 -240 113z" />
<glyph unicode="K" horiz-adv-x="963" d="M130 0v1365h123v-608l498 608h162l-510 -619l546 -746h-150l-546 746v-746h-123z" />
<glyph unicode="L" horiz-adv-x="703" d="M130 0v1365h123v-1256h423v-109h-546z" />
<glyph unicode="M" horiz-adv-x="1533" d="M48 0l231 1406l418 -972q36 -83 75 -188q41 114 69 181l415 979l229 -1406h-124l-133 830q-4 27 -21 178q-19 -61 -48 -130l-387 -919l-394 917q-26 63 -50 132q-2 -17 -5 -65q-3 -36 -14 -109l-134 -834h-127z" />
<glyph unicode="N" horiz-adv-x="1406" d="M130 0v1406l965 -1075q47 -52 68 -90q-9 84 -9 203v921h123v-1420l-947 1062q-51 59 -85 108q9 -46 9 -108l-1 -62v-945h-123z" />
<glyph unicode="O" horiz-adv-x="1570" d="M68 689q0 91 31 193t85 187q105 166 291 252q141 64 307 64q302 0 510 -207q93 -91 146 -208q64 -140 64 -294q0 -286 -205 -489q-209 -207 -517 -207q-312 0 -515 213q-197 206 -197 496zM200 692q0 -248 151 -415q79 -87 191 -137q115 -51 241 -51q245 0 422 183 q165 170 165 401q0 166 -84 312q-84 147 -229 225q-124 66 -275 66q-248 0 -415 -169q-80 -81 -124 -193q-43 -109 -43 -222z" />
<glyph unicode="P" horiz-adv-x="872" d="M130 0v1365h187q162 0 229.5 -10t118.5 -42q153 -94 153 -325q0 -157 -75 -255q-58 -75 -139.5 -101t-259.5 -26h-91v-606h-123zM253 715h100q105 0 146.5 6.5t77.5 27.5q114 68 114 237q0 182 -119 243q-35 18 -73.5 22.5t-159.5 4.5h-86v-541z" />
<glyph unicode="Q" horiz-adv-x="1570" d="M68 679q0 206 116 389q108 170 291 253q141 64 307 64q303 0 510 -207q210 -209 210 -503q0 -154 -66.5 -294t-185.5 -238l235 -239h-166l-168 171q-162 -96 -374 -96q-309 0 -512 213q-98 102 -149 236q-48 123 -48 251zM200 683q0 -240 151 -407q79 -88 191 -137 q115 -51 241 -51q153 0 285 73l-286 297h164l220 -227q204 182 204 441q0 166 -84 313q-84 148 -229 225q-124 66 -275 66q-249 0 -415 -169q-167 -170 -167 -424z" />
<glyph unicode="R" horiz-adv-x="896" d="M130 0v1365h135q177 0 240 -9.5t117 -44.5q72 -46 113 -129t41 -182q0 -150 -84 -246t-229 -112l386 -642h-142l-383 642h-71v-642h-123zM253 751h86q93 0 132.5 6t71.5 25q106 61 106 217q0 190 -144 240q-49 17 -175 17h-77v-505z" />
<glyph unicode="S" horiz-adv-x="833" d="M41 260l107 53q30 -75 52 -112q68 -113 204 -113q108 0 177.5 72t69.5 185q0 103 -51 170t-184 136q-160 84 -217 135q-55 48 -86 119t-31 148q0 177 135 270q88 62 215 62q122 0 201.5 -56.5t131.5 -180.5l-108 -54q-25 57 -50 91q-68 91 -182 91q-94 0 -158 -64 q-58 -58 -58 -151q0 -90 50.5 -152.5t174.5 -125.5q167 -85 233 -153q111 -112 111 -275q0 -176 -123 -289q-95 -87 -251 -87q-105 0 -176 35.5t-125 115.5q-34 50 -62 130z" />
<glyph unicode="T" horiz-adv-x="819" d="M7 1256v109h806v-109h-342v-1256h-123v1256h-341z" />
<glyph unicode="U" horiz-adv-x="1158" d="M116 526v839h123v-839q0 -124 12.5 -188t45.5 -114q90 -135 274 -135q222 0 305 162q43 85 43 274v840h123v-838q0 -140 -18 -223.5t-62 -146.5q-124 -177 -388 -177q-279 0 -395 205q-63 111 -63 341z" />
<glyph unicode="V" horiz-adv-x="1065" d="M7 1365h132l335 -911q50 -136 71 -200q31 107 64 199l324 912h132l-505 -1406h-30z" />
<glyph unicode="W" horiz-adv-x="1850" d="M7 1365h132l284 -811q55 -158 93 -290q37 132 89 275l322 886l316 -910q11 -32 36 -112q16 -50 44 -139q32 119 86 263l309 838h133l-521 -1406h-26l-337 983q-5 15 -33 110l-10 33q-16 -64 -42 -136l-356 -990h-25z" />
<glyph unicode="X" horiz-adv-x="943" d="M27 0l376 685l-376 680h137l271 -497l16 -26q15 -26 22 -38l7 13l25 49l275 499h137l-374 -680l379 -685h-137l-271 495q-5 10 -16 28q-14 24 -26 45q-8 -16 -23 -44l-16 -31l-269 -493h-137z" />
<glyph unicode="Y" horiz-adv-x="967" d="M-7 1365h136l356 -658l359 658h137l-442 -795v-570h-123v570z" />
<glyph unicode="Z" horiz-adv-x="965" d="M14 0l703 1256h-617v109h815l-704 -1256h718v-109h-915z" />
<glyph unicode="[" horiz-adv-x="550" d="M130 -382v1918h393v-109h-277v-1700h277v-109h-393z" />
<glyph unicode="\" horiz-adv-x="918" d="M55 1536h112l778 -1918h-111z" />
<glyph unicode="]" horiz-adv-x="550" d="M27 -273h277v1700h-277v109h393v-1918h-393v109z" />
<glyph unicode="^" horiz-adv-x="1024" d="M64 765l372 603h153l372 -603h-130l-320 511l-319 -511h-128z" />
<glyph unicode="_" horiz-adv-x="1024" d="M0 -144h1024v-109h-1024v109z" />
<glyph unicode="`" horiz-adv-x="1024" d="M355 1204l96 52l135 -259l-51 -30z" />
<glyph unicode="a" horiz-adv-x="976" d="M63 419q0 197 114 325q110 123 285 123q183 0 299 -147v133h115v-853h-115v133q-117 -147 -299 -147q-185 0 -300 135q-99 116 -99 298zM180 429q0 -180 104 -270q80 -70 188 -70q124 0 209 85q81 82 81 257q0 152 -72 238q-80 95 -214 95q-155 0 -238 -126 q-58 -89 -58 -209z" />
<glyph unicode="b" horiz-adv-x="976" d="M100 0v1536h115v-820q115 151 296 151q198 0 310 -152q92 -123 92 -289q0 -198 -123 -327q-108 -113 -282 -113q-88 0 -155.5 32.5t-137.5 108.5v-127h-115zM215 430q0 -175 83 -257q83 -84 203 -84q149 0 231 114q64 87 64 227q0 146 -78 238q-80 95 -217 95 q-161 0 -238 -129q-48 -79 -48 -204z" />
<glyph unicode="c" horiz-adv-x="819" d="M64 425q0 200 151 331q126 111 301 111q66 0 118 -16t130 -60v-144q-69 65 -124 90.5t-127 25.5q-155 0 -252 -115q-80 -94 -80 -224q0 -160 113 -257q88 -77 214 -77q148 0 256 123v-144q-108 -83 -261 -83q-194 0 -319 133q-120 128 -120 306z" />
<glyph unicode="d" horiz-adv-x="976" d="M63 425q0 202 120 322q119 120 275 120q89 0 168.5 -39.5t134.5 -111.5v820h115v-1536h-115v127q-58 -61 -91 -84q-82 -57 -205 -57q-201 0 -314 148q-88 116 -88 291zM180 432q0 -164 81 -252q84 -91 213 -91q141 0 225 106q62 78 62 221q0 159 -69 244q-39 47 -96.5 75 t-117.5 28q-154 0 -243 -129q-55 -79 -55 -202z" />
<glyph unicode="e" horiz-adv-x="897" d="M64 429q0 185 97 302q113 136 298 136q149 0 251 -96q65 -62 93 -142.5t29 -213.5h-651q2 -111 40 -184q74 -142 237 -142q156 0 253 162l93 -51q-128 -214 -348 -214q-201 0 -311 155q-81 116 -81 288zM181 513h531q-5 78 -39 133q-35 54 -94.5 85.5t-128.5 31.5 q-106 0 -181 -70t-88 -180z" />
<glyph unicode="f" horiz-adv-x="497" d="M34 755v98h130v415q0 75 5.5 112t22.5 70q53 103 196 103q71 0 147 -38v-125q-69 59 -139 59q-63 0 -90 -43t-27 -142v-411h256v-98h-256v-755h-115v755h-130z" />
<glyph unicode="g" horiz-adv-x="976" d="M63 429q0 136 65 250q57 100 162 151q77 37 172 37q90 0 159.5 -31.5t139.5 -104.5v122h115v-755q0 -141 -10 -195q-26 -140 -125 -216q-98 -76 -263 -76q-238 0 -332 150q-41 66 -51 163h113q15 -87 63 -134q78 -75 214 -75q175 0 242 126q34 65 34 222v82 q-102 -159 -293 -159q-184 0 -298 132q-107 125 -107 311zM181 438q0 -177 101 -271q84 -77 196 -77q134 0 208.5 92.5t74.5 257.5q0 115 -46 192q-35 59 -100.5 95t-137.5 36q-124 0 -213 -93q-83 -86 -83 -232z" />
<glyph unicode="h" horiz-adv-x="867" d="M100 0v1536h115v-795q89 126 259 126q127 0 209 -69q48 -41 66 -97t18 -168v-533h-115v537q0 85 -21 134q-39 92 -169 92q-69 0 -128 -31.5t-84 -82.5q-35 -70 -35 -208v-441h-115z" />
<glyph unicode="i" horiz-adv-x="314" d="M75 1228q0 32 24.5 55t58.5 23t57.5 -23t23.5 -57q0 -33 -24 -57t-58 -24t-58 24.5t-24 58.5zM100 0v853h115v-853h-115z" />
<glyph unicode="j" horiz-adv-x="314" d="M-91 -298l62 75q49 -51 88 -51q24 0 32.5 25t8.5 96v1006h115v-1038q0 -97 -29 -140q-38 -57 -102 -57q-91 0 -175 84zM75 1226q0 32 24 55.5t58 23.5t58 -23.5t24 -56.5t-24 -56t-57 -23q-35 0 -59 23t-24 57z" />
<glyph unicode="k" horiz-adv-x="739" d="M100 0v1536h115v-1099l341 416h148l-343 -417l371 -436h-146l-371 437v-437h-115z" />
<glyph unicode="l" horiz-adv-x="314" d="M100 0v1536h115v-1536h-115z" />
<glyph unicode="m" horiz-adv-x="1304" d="M100 0v853h115v-106q82 120 231 120q160 0 243 -138q86 138 244 138q166 0 235 -118q36 -63 36 -205v-544h-115v549q0 98 -23 137q-45 78 -141 78q-60 0 -113 -35.5t-74 -89.5q-24 -60 -24 -207v-432h-115v544q0 103 -31 149q-46 70 -142 70q-78 0 -136 -51 q-43 -38 -59 -99.5t-16 -189.5v-423h-115z" />
<glyph unicode="n" horiz-adv-x="866" d="M100 0v853h115v-110q95 124 257 124q88 0 158 -36t104 -98q33 -63 33 -216v-517h-115v512q0 122 -29 171q-47 80 -165 80q-86 0 -146.5 -44.5t-81.5 -122.5q-15 -57 -15 -147v-449h-115z" />
<glyph unicode="o" horiz-adv-x="1014" d="M64 434q0 193 152 324q126 109 297 109q208 0 338 -153q99 -117 99 -283q0 -199 -138 -328q-126 -117 -311 -117q-135 0 -243 71q-97 65 -149 174q-45 93 -45 203zM181 432q0 -146 89 -243q92 -99 232 -99q163 0 259 123q72 92 72 220q0 143 -92 237q-91 93 -229 93 q-151 0 -249 -110q-82 -92 -82 -221z" />
<glyph unicode="p" horiz-adv-x="976" d="M100 -382v1235h115v-138q49 60 92 90q89 62 205 62q193 0 310 -144q91 -113 91 -295q0 -200 -115 -322q-113 -120 -288 -120q-92 0 -161 34t-134 113v-515h-115zM215 427q0 -174 78 -252q84 -85 204 -85q160 0 244 127q55 83 55 210q0 161 -83 250q-80 86 -209 86 q-147 0 -229 -111q-60 -81 -60 -225z" />
<glyph unicode="q" horiz-adv-x="976" d="M63 426q0 211 122 331q112 110 277 110q92 0 161 -34.5t138 -115.5v136h115v-1235h-115v516q-72 -81 -138.5 -114.5t-155.5 -33.5q-205 0 -322 161q-82 114 -82 279zM180 428q0 -152 75 -239q85 -99 223 -99q145 0 224 106q59 77 59 224q0 177 -82 260t-205 83 q-150 0 -232 -111q-62 -84 -62 -224z" />
<glyph unicode="r" horiz-adv-x="580" d="M100 0v853h115v-125q50 75 97.5 107t107.5 32q72 0 154 -50l-50 -103q-62 49 -117 49q-62 0 -110.5 -44.5t-67.5 -117.5q-6 -26 -14 -168v-433h-115z" />
<glyph unicode="s" horiz-adv-x="595" d="M55 109l73 78q83 -97 177 -97q71 0 113 50q32 38 32 82q0 52 -37.5 91.5t-130.5 85.5q-110 56 -157 113.5t-47 136.5q0 105 78 168q63 50 154 50q146 0 224 -120l-93 -61q-33 43 -61 60t-67 17q-54 0 -92.5 -33t-38.5 -78q0 -79 144 -154q138 -72 172 -109 q56 -63 56 -154q0 -120 -88 -194q-67 -55 -167 -55q-144 0 -244 123z" />
<glyph unicode="t" horiz-adv-x="483" d="M68 755v98h96v348h115v-348h177v-98h-177v-755h-115v755h-96z" />
<glyph unicode="u" horiz-adv-x="855" d="M100 338v515h115v-509q0 -113 27 -164q22 -41 71 -65.5t112 -24.5q133 0 185 88q30 51 30 171v504h115v-503q0 -112 -11 -153q-34 -120 -143 -174q-75 -37 -174 -37q-181 0 -265 106q-37 46 -49.5 96.5t-12.5 149.5z" />
<glyph unicode="v" horiz-adv-x="824" d="M7 853h123l233 -512q26 -58 52 -127q38 97 53 131l224 508h125l-402 -894z" />
<glyph unicode="w" horiz-adv-x="1291" d="M7 853h126l193 -487q20 -50 50 -132q23 76 46 133l217 542l202 -537q15 -39 52 -148q23 67 59 152l204 477h128l-398 -908l-223 600l-9 27q-10 28 -15 52q-7 -23 -18 -52l-11 -28l-236 -599z" />
<glyph unicode="x" horiz-adv-x="789" d="M7 0l312 433l-312 420h146l179 -246q38 -53 52 -74l9 -13q14 21 21 31q16 23 39 56l176 246h139l-304 -420l319 -433h-141l-190 259q-2 2 -19 27q-3 5 -18 25q-11 16 -22 34q-16 -23 -42 -60l-20 -29l-186 -256h-138z" />
<glyph unicode="y" horiz-adv-x="854" d="M7 853h130l327 -614q17 45 32 79l231 535h121l-535 -1235h-119l209 491z" />
<glyph unicode="z" horiz-adv-x="824" d="M37 0l522 755h-494v98h697l-519 -755h538v-98h-744z" />
<glyph unicode="{" horiz-adv-x="550" d="M-7 509v136q89 43 113 78.5t24 126.5v550q0 64 36 100t100 36h184v-109h-143q-61 0 -61 -82v-563q0 -94 -26 -133.5t-111 -71.5q80 -29 106 -67q31 -46 31 -138v-563q0 -82 61 -82h143v-109h-184q-63 0 -100 36q-36 37 -36 100v550q0 91 -24 127t-113 78z" />
<glyph unicode="|" horiz-adv-x="1024" d="M454 -341v1706h116v-1706h-116z" />
<glyph unicode="}" horiz-adv-x="550" d="M100 -273h143q62 0 62 82v563q0 92 27.5 133.5t108.5 71.5q-81 31 -105 65q-31 43 -31 140v563q0 82 -62 82h-143v109h184q64 0 101 -36q36 -37 36 -100v-550q0 -91 23.5 -126.5t112.5 -78.5v-136q-89 -42 -112.5 -78t-23.5 -127v-550q0 -63 -36 -100q-37 -36 -101 -36 h-184v109z" />
<glyph unicode="~" horiz-adv-x="1365" d="M192 1251q40 77 76 122q79 100 196 100q79 0 234 -76q89 -44 128 -57.5t77 -13.5q61 0 104 33t93 118l73 -43q-112 -219 -283 -219q-46 0 -96 18t-188 85q-94 45 -150 45t-101 -36.5t-91 -121.5z" />
<glyph unicode="&#xa1;" horiz-adv-x="476" d="M137 766q0 41 29.5 70.5t71.5 29.5q43 0 72.5 -29.5t29.5 -71.5q0 -41 -30 -70t-72 -29t-71.5 29t-29.5 71zM176 -505v1017h126v-1017h-126z" />
<glyph unicode="&#xa2;" d="M111 673q0 157 97 275t254 153v162h109v-152q116 -2 240 -71v-144q-64 62 -115.5 86.5t-124.5 28.5v-672q143 5 240 122v-144q-92 -71 -240 -82v-133h-109v140q-105 22 -178 78q-58 44 -98 104q-75 111 -75 249zM228 672q0 -118 62 -203.5t172 -118.5v648 q-88 -32 -138 -83q-96 -98 -96 -243z" />
<glyph unicode="&#xa3;" d="M55 87q56 56 119.5 87.5t120.5 31.5q11 0 37 -3q21 75 21 140q0 77 -31 156h-233v109h179q-150 238 -150 424q0 175 129 277q96 76 232 76q163 0 261 -103q93 -98 111 -315l-123 -20q-10 97 -32 161q-24 75 -78 119q-59 49 -143 49q-99 0 -166 -73q-64 -71 -64 -187 q0 -69 21.5 -129t90.5 -185q30 -55 50 -94h337v-109h-295q31 -77 31 -149t-32 -165q23 -13 64 -39q89 -57 149 -57q80 0 176 111l77 -76q-116 -144 -257 -144q-62 0 -145 47q-70 40 -107 53t-82 13q-59 0 -104.5 -22t-109.5 -80z" />
<glyph unicode="&#xa4;" horiz-adv-x="1186" d="M71 251l169 168q-105 143 -105 283q0 142 104 287l-168 170l73 73l170 -169q73 52 135 73.5t141 21.5q80 0 141 -21.5t138 -77.5l168 170l74 -73l-169 -170q102 -141 102 -281q0 -135 -96 -279l168 -169l-73 -73l-169 169q-71 -57 -136.5 -80.5t-149.5 -23.5 q-78 0 -139.5 22t-134.5 76l-169 -170zM258 704q0 -152 113 -254q95 -85 220 -85t218 85q112 102 112 250q0 77 -31 147t-85 116q-94 79 -214 79q-147 0 -246 -109q-87 -95 -87 -229z" />
<glyph unicode="&#xa5;" d="M37 1365h127l292 -657l293 657h128l-224 -491h144v-109h-192l-75 -164h233v-109h-248v-492h-123v492h-242v109h228l-74 164h-188v109h141z" />
<glyph unicode="&#xa6;" horiz-adv-x="1024" d="M454 314h116v-655h-116v655zM454 692v673h116v-673h-116z" />
<glyph unicode="&#xa7;" horiz-adv-x="1038" d="M67 660q0 193 208 271q-99 83 -99 199q0 118 92.5 193t238.5 75q166 0 259.5 -90t97.5 -253h-107q-3 93 -37 147q-64 103 -214 103q-96 0 -155.5 -49t-59.5 -129q0 -70 47 -117q35 -35 159 -101q227 -121 321 -190q154 -113 154 -252q0 -91 -57.5 -162.5t-158.5 -104.5 q113 -100 113 -214q0 -127 -96.5 -206t-251.5 -79q-175 0 -268.5 93t-97.5 270h107q11 -267 256 -267q113 0 176 59q57 54 57 130q0 57 -29.5 99t-102.5 91q-59 40 -273 159q-157 87 -218 158t-61 167zM172 670q0 -71 64 -131t256 -169q91 -52 113 -66q60 -38 80 -49 q85 26 132 78t47 119q0 86 -79.5 155t-345.5 215q-79 44 -97 53q-170 -66 -170 -205z" />
<glyph unicode="&#xa8;" horiz-adv-x="1024" d="M269 1104q0 29 21.5 49.5t51.5 20.5q31 0 52 -21t21 -52q0 -30 -21.5 -51.5t-51.5 -21.5t-51.5 22.5t-21.5 53.5zM611 1105q0 29 21 49.5t51 20.5t51 -21.5t21 -51.5q0 -31 -21 -53t-50 -22q-31 0 -52 23t-21 55z" />
<glyph unicode="&#xa9;" horiz-adv-x="1599" d="M75 681q0 208 103 386q101 173 290 264q151 74 336 74q199 0 377 -103q176 -102 266 -287q77 -157 77 -333q0 -206 -104 -382q-102 -173 -288 -264q-158 -76 -332 -76q-205 0 -382 103q-175 101 -266 287q-77 157 -77 331zM156 684q0 -181 95 -337t257 -239 q137 -70 292 -70q266 0 454 189q189 190 189 459q0 180 -92 339q-88 152 -257 234q-139 68 -287 68q-188 0 -346 -92q-156 -90 -237 -255q-68 -141 -68 -296zM412 681q0 109 57 207q65 110 177 167q97 50 217 50q115 0 216 -48v-96q-109 66 -218 66q-165 0 -268 -117 q-85 -96 -85 -227q0 -154 114 -255q102 -89 242 -89q104 0 215 67v-98q-99 -47 -218 -47q-211 0 -341 145q-108 121 -108 275z" />
<glyph unicode="&#xaa;" horiz-adv-x="609" d="M30 1087q0 126 73 208q71 79 183 79q111 0 182 -82v73h83v-546h-83v73q-73 -82 -183 -82q-118 0 -192 86q-63 75 -63 191zM114 1093q0 -109 63 -164q49 -43 114 -43q83 0 130 54.5t47 150.5q0 98 -44 150q-48 57 -130 57q-94 0 -145 -77q-35 -54 -35 -128z" />
<glyph unicode="&#xab;" horiz-adv-x="601" d="M68 430l157 306l61 -26l-98 -280l98 -288l-61 -25zM286 430l158 306l61 -26l-99 -280l99 -288l-61 -25z" />
<glyph unicode="&#xac;" horiz-adv-x="1024" d="M68 438v108h887v-546h-116v438h-771z" />
<glyph unicode="&#xad;" horiz-adv-x="363" d="M0 373v106h363v-106h-363z" />
<glyph unicode="&#xae;" horiz-adv-x="1599" d="M75 681q0 208 103 386q101 173 290 264q151 74 336 74q199 0 377 -103q176 -102 266 -287q77 -157 77 -333q0 -206 -104 -382q-102 -173 -288 -264q-158 -76 -332 -76q-205 0 -382 103q-175 101 -266 287q-77 157 -77 331zM156 684q0 -181 95 -337t257 -239 q137 -70 292 -70q266 0 454 189q189 190 189 459q0 180 -92 339q-88 152 -257 234q-139 68 -287 68q-188 0 -346 -92q-156 -90 -237 -255q-68 -141 -68 -296zM608 273v819h91q110 0 150 -6t74 -27q46 -28 72.5 -78.5t26.5 -111.5q0 -97 -65 -160q-41 -40 -124 -56l240 -380 h-104l-238 379h-33v-379h-90zM698 730h47q92 0 123 17q62 34 62 122q0 107 -85 135q-29 10 -106 10h-41v-284z" />
<glyph unicode="&#xaf;" horiz-adv-x="1024" d="M205 1049v93h614v-93h-614z" />
<glyph unicode="&#xb0;" d="M121 1045q0 73 31 142t84 113q98 83 222 83q145 0 246 -107q90 -95 90 -234t-102 -238q-98 -95 -234 -95q-149 0 -250 110q-87 96 -87 226zM234 1046q0 -84 54 -150q66 -79 169 -79q86 0 153 63q71 68 71 160q0 97 -62 162q-69 73 -164 73q-84 0 -147 -61 q-74 -71 -74 -168z" />
<glyph unicode="&#xb1;" d="M61 38v116h792v-116h-792zM61 625v116h338v338h116v-338h338v-116h-338v-338h-116v338h-338z" />
<glyph unicode="&#xb2;" horiz-adv-x="601" d="M56 546l264 350q64 85 90.5 143.5t26.5 114.5q0 66 -37 105.5t-99 39.5q-105 0 -135 -95q-8 -25 -11 -92h-92q2 100 29 152q59 113 208 113q110 0 173 -66q57 -60 57 -158q0 -127 -113 -276l-190 -253h294v-78h-465z" />
<glyph unicode="&#xb3;" horiz-adv-x="601" d="M49 750h92q4 -57 30 -88q41 -50 119 -50q71 0 114.5 42t43.5 111q0 103 -75 144q-31 17 -120 21v78q71 0 106 15q33 14 53 51t20 84q0 65 -36.5 103t-99.5 38q-121 0 -135 -129h-92q9 207 225 207q108 0 168 -56q62 -58 62 -157q0 -143 -120 -195q136 -53 136 -201 q0 -123 -82 -185q-64 -49 -170 -49q-113 0 -175.5 56.5t-63.5 159.5z" />
<glyph unicode="&#xb4;" horiz-adv-x="1010" d="M396 997l136 259l95 -52l-180 -237z" />
<glyph unicode="&#xb5;" horiz-adv-x="1024" d="M109 -340v1323h116v-567q0 -114 18 -174t65 -105q78 -74 195 -74q135 0 218 106q43 55 61 116.5t18 151.5v546h116v-983h-116v192q-40 -93 -90 -139q-85 -81 -211 -81q-91 0 -156 38t-118 121v-471h-116z" />
<glyph unicode="&#xb6;" horiz-adv-x="1147" d="M137 1001q0 102 40 183.5t112 126.5q87 54 249 54h486v-109h-106v-1638h-116v1638h-193v-1638h-116v1028q-93 -1 -154 23q-97 38 -150 127q-52 89 -52 205z" />
<glyph unicode="&#xb7;" horiz-adv-x="410" d="M108 429q0 39 28.5 67t67.5 28q41 0 69.5 -28.5t28.5 -69.5q0 -40 -28.5 -68t-68.5 -28t-68.5 29t-28.5 70z" />
<glyph unicode="&#xb8;" horiz-adv-x="1024" d="M355 -302l209 233h105l-139 -233h-175z" />
<glyph unicode="&#xb9;" horiz-adv-x="601" d="M137 1287l41 78h172v-819h-90v741h-123z" />
<glyph unicode="&#xba;" horiz-adv-x="609" d="M21 1097q0 123 97 207q81 70 190 70q133 0 217 -98q63 -75 63 -181q0 -128 -89 -210q-80 -75 -198 -75q-139 0 -221 106q-59 78 -59 181zM106 1096q0 -90 54 -149q56 -61 141 -61q100 0 158 75q44 56 44 135q0 88 -56 145q-55 57 -140 57q-91 0 -151 -68 q-50 -55 -50 -134z" />
<glyph unicode="&#xbb;" horiz-adv-x="601" d="M96 142l99 288l-99 280l61 26l157 -306l-157 -313zM314 142l99 288l-99 280l62 26l157 -306l-157 -313z" />
<glyph unicode="&#xbc;" horiz-adv-x="1476" d="M137 1287l41 78h172v-819h-90v741h-123zM369 2l625 1365h113l-629 -1365h-109zM907 181l451 703v-625h84v-78h-84v-181h-90v181h-361zM1063 259h200v201q0 74 3 129q-16 -30 -48 -83l-30 -50z" />
<glyph unicode="&#xbd;" horiz-adv-x="1476" d="M137 1287l41 78h172v-819h-90v741h-123zM369 2l625 1365h113l-629 -1365h-109zM931 0l264 350q64 85 90.5 143.5t26.5 114.5q0 66 -37 105.5t-98 39.5q-106 0 -136 -95q-8 -25 -11 -92h-92q2 100 29 152q60 113 208 113q110 0 173 -66q57 -59 57 -158q0 -127 -113 -276 l-190 -253h294v-78h-465z" />
<glyph unicode="&#xbe;" horiz-adv-x="1476" d="M49 750h92q4 -57 30 -88q41 -50 119 -50q71 0 114.5 42t43.5 111q0 103 -75 144q-31 17 -120 21v78q71 0 106 15q33 14 53 51t20 84q0 65 -36.5 103t-99.5 38q-121 0 -135 -129h-92q9 207 225 207q108 0 168 -56q62 -58 62 -157q0 -143 -120 -195q136 -53 136 -201 q0 -123 -82 -185q-64 -49 -170 -49q-113 0 -175.5 56.5t-63.5 159.5zM369 2l625 1365h113l-629 -1365h-109zM907 181l451 703v-625h84v-78h-84v-181h-90v181h-361zM1063 259h200v201q0 75 3 129q-16 -30 -48 -83l-30 -50z" />
<glyph unicode="&#xbf;" horiz-adv-x="739" d="M109 -239q0 134 104 239q29 29 111 95q101 82 134 128t33 105q0 50 -29 82.5t-74 32.5q-103 0 -106 -140h-116q-1 14 -1 19q0 63 25 113q59 116 195 116q114 0 178 -85q47 -62 47 -151q0 -112 -80 -201q-21 -23 -162 -135q-70 -56 -102 -109t-32 -115q0 -67 40 -109 t103 -42q86 0 123 67q16 29 26 121h117q-2 -98 -27 -157q-28 -64 -93 -102t-147 -38q-120 0 -196 77q-71 73 -71 189zM273 768q0 41 29 69.5t71 28.5t71.5 -29t29.5 -71q0 -41 -29 -70.5t-70 -29.5q-42 0 -72 30t-30 72z" />
<glyph unicode="&#xc0;" horiz-adv-x="1181" d="M7 0l582 1410l592 -1410h-130l-172 410h-572l-170 -410h-130zM351 516h483l-121 292q-89 212 -123 308q-23 -72 -106 -278zM448 1731l95 52l136 -260l-51 -30z" />
<glyph unicode="&#xc1;" horiz-adv-x="1181" d="M7 0l582 1410l592 -1410h-130l-172 410h-572l-170 -410h-130zM351 516h483l-121 292q-89 212 -123 308q-23 -72 -106 -278zM502 1523l136 260l96 -52l-180 -238z" />
<glyph unicode="&#xc2;" horiz-adv-x="1181" d="M7 0l582 1410l592 -1410h-130l-172 410h-572l-170 -410h-130zM351 516h483l-121 292q-89 212 -123 308q-23 -72 -106 -278zM358 1543l184 231h100l182 -231l-56 -44l-177 179l-182 -172z" />
<glyph unicode="&#xc3;" horiz-adv-x="1181" d="M7 0l582 1410l592 -1410h-130l-172 410h-572l-170 -410h-130zM345 1546q2 48 18 85q42 98 130 98q28 0 52.5 -12.5t71.5 -50.5t77 -38t44.5 19t19.5 66h78q-1 -82 -40.5 -131t-104.5 -49q-68 0 -128 57q-27 26 -40 33t-31 7q-54 0 -66 -84h-81zM351 516h483l-121 292 q-89 212 -123 308q-23 -72 -106 -278z" />
<glyph unicode="&#xc4;" horiz-adv-x="1181" d="M7 0l582 1410l592 -1410h-130l-172 410h-572l-170 -410h-130zM351 516h483l-121 292q-89 212 -123 308q-23 -72 -106 -278zM351 1630q0 29 21.5 49.5t51.5 20.5q31 0 52 -21t21 -52q0 -30 -21.5 -51.5t-51.5 -21.5t-51.5 22t-21.5 54zM693 1631q0 29 21 49.5t51 20.5 t51 -21.5t21 -51.5q0 -31 -21 -53t-50 -22q-30 0 -51.5 23t-21.5 55z" />
<glyph unicode="&#xc5;" horiz-adv-x="1181" d="M7 0l582 1410l592 -1410h-130l-172 410h-572l-170 -410h-130zM351 516h483l-121 292q-89 212 -123 308q-23 -72 -106 -278zM441 1638q0 61 44 106t105 45q62 0 106 -44.5t44 -107.5q0 -62 -43.5 -106t-105.5 -44q-63 0 -106.5 44t-43.5 107zM523 1637q0 -29 20.5 -49.5 t49.5 -20.5t49 20.5t20 50.5t-20.5 51t-49.5 21q-28 0 -48.5 -21.5t-20.5 -51.5z" />
<glyph unicode="&#xc6;" horiz-adv-x="1536" d="M6 0l748 1365h700v-109h-519v-468h519v-109h-519v-570h519v-109h-642v409h-443l-223 -409h-140zM428 517h384v715z" />
<glyph unicode="&#xc7;" horiz-adv-x="1204" d="M68 680q0 181 91 344q102 184 280 279q156 83 346 83q180 0 337 -76v-135q-165 102 -341 102q-162 0 -297 -80q-140 -82 -216 -229q-68 -131 -68 -286q0 -265 187 -438q167 -155 401 -155q167 0 334 104v-138q-155 -75 -340 -75q-338 0 -544 244q-170 201 -170 456z M531 -302l209 233h105l-139 -233h-175z" />
<glyph unicode="&#xc8;" horiz-adv-x="874" d="M130 0v1365h662v-109h-539v-468h539v-109h-539v-570h539v-109h-662zM349 1731l96 52l135 -260l-51 -30z" />
<glyph unicode="&#xc9;" horiz-adv-x="874" d="M130 0v1365h662v-109h-539v-468h539v-109h-539v-570h539v-109h-662zM363 1523l135 260l96 -52l-180 -238z" />
<glyph unicode="&#xca;" horiz-adv-x="874" d="M130 0v1365h662v-109h-539v-468h539v-109h-539v-570h539v-109h-662zM232 1543l184 231h99l182 -231l-55 -44l-178 179l-181 -172z" />
<glyph unicode="&#xcb;" horiz-adv-x="874" d="M130 0v1365h662v-109h-539v-468h539v-109h-539v-570h539v-109h-662zM222 1630q0 29 21.5 49.5t51.5 20.5q31 0 52 -21t21 -52q0 -30 -21.5 -51.5t-51.5 -21.5t-51.5 22t-21.5 54zM564 1631q0 29 21 49.5t51 20.5t51 -21.5t21 -51.5q0 -31 -21 -53t-50 -22q-31 0 -52 23 t-21 55z" />
<glyph unicode="&#xcc;" horiz-adv-x="382" d="M76 1731l96 52l135 -260l-51 -30zM130 0v1365h123v-1365h-123z" />
<glyph unicode="&#xcd;" horiz-adv-x="382" d="M76 1523l136 260l95 -52l-180 -238zM130 0v1365h123v-1365h-123z" />
<glyph unicode="&#xce;" horiz-adv-x="382" d="M-42 1543l184 231h100l182 -231l-56 -44l-177 179l-182 -172zM129 0v1365h123v-1365h-123z" />
<glyph unicode="&#xcf;" horiz-adv-x="382" d="M3 1630q0 29 21.5 49.5t51.5 20.5q31 0 52 -21t21 -52q0 -30 -21.5 -51.5t-51.5 -21.5t-51.5 22t-21.5 54zM130 0v1365h123v-1365h-123zM236 1631q0 29 21 49.5t51 20.5t51 -21.5t21 -51.5q0 -31 -21 -53t-50 -22q-30 0 -51.5 23t-21.5 55z" />
<glyph unicode="&#xd0;" horiz-adv-x="1198" d="M-27 634v96h157v635h196q128 0 200 -7q206 -21 336 -116q139 -102 210 -266q58 -132 58 -291q0 -251 -140 -435q-157 -207 -395 -238q-95 -12 -197 -12h-268v634h-157zM253 109h139q125 0 184 9q201 29 320 200q101 145 101 362q0 232 -118 383q-125 161 -369 186 q-73 7 -183 7h-74v-526h375v-96h-375v-525z" />
<glyph unicode="&#xd1;" horiz-adv-x="1406" d="M130 0v1406l965 -1075q47 -52 68 -90q-9 84 -9 203v921h123v-1420l-947 1062q-51 59 -85 108q9 -46 9 -108l-1 -62v-945h-123zM458 1546q2 48 18 85q42 98 130 98q28 0 52 -12.5t72 -50.5q47 -38 77 -38t44.5 19t18.5 66h79q-2 -82 -41.5 -131t-103.5 -49q-68 0 -129 57 q-26 26 -39 33t-32 7q-53 0 -65 -84h-81z" />
<glyph unicode="&#xd2;" horiz-adv-x="1570" d="M68 689q0 91 31 193t85 187q105 166 291 252q141 64 307 64q302 0 510 -207q93 -91 146 -208q64 -140 64 -294q0 -286 -205 -489q-209 -207 -517 -207q-312 0 -515 213q-197 206 -197 496zM200 692q0 -248 151 -415q79 -87 191 -137q115 -51 241 -51q245 0 422 183 q165 170 165 401q0 166 -84 312q-84 147 -229 225q-124 66 -275 66q-248 0 -415 -169q-80 -81 -124 -193q-43 -109 -43 -222zM669 1731l96 52l135 -260l-51 -30z" />
<glyph unicode="&#xd3;" horiz-adv-x="1570" d="M68 689q0 91 31 193t85 187q105 166 291 252q141 64 307 64q302 0 510 -207q93 -91 146 -208q64 -140 64 -294q0 -286 -205 -489q-209 -207 -517 -207q-312 0 -515 213q-197 206 -197 496zM200 692q0 -248 151 -415q79 -87 191 -137q115 -51 241 -51q245 0 422 183 q165 170 165 401q0 166 -84 312q-84 147 -229 225q-124 66 -275 66q-248 0 -415 -169q-80 -81 -124 -193q-43 -109 -43 -222zM669 1523l136 260l95 -52l-180 -238z" />
<glyph unicode="&#xd4;" horiz-adv-x="1570" d="M68 689q0 91 31 193t85 187q105 166 291 252q141 64 307 64q302 0 510 -207q93 -91 146 -208q64 -140 64 -294q0 -286 -205 -489q-209 -207 -517 -207q-312 0 -515 213q-197 206 -197 496zM200 692q0 -248 151 -415q79 -87 191 -137q115 -51 241 -51q245 0 422 183 q165 170 165 401q0 166 -84 312q-84 147 -229 225q-124 66 -275 66q-248 0 -415 -169q-80 -81 -124 -193q-43 -109 -43 -222zM552 1543l184 231h100l182 -231l-56 -44l-177 179l-182 -172z" />
<glyph unicode="&#xd5;" horiz-adv-x="1570" d="M68 689q0 91 31 193t85 187q105 166 291 252q141 64 307 64q302 0 510 -207q93 -91 146 -208q64 -140 64 -294q0 -286 -205 -489q-209 -207 -517 -207q-312 0 -515 213q-197 206 -197 496zM200 692q0 -248 151 -415q79 -87 191 -137q115 -51 241 -51q245 0 422 183 q165 170 165 401q0 166 -84 312q-84 147 -229 225q-124 66 -275 66q-248 0 -415 -169q-80 -81 -124 -193q-43 -109 -43 -222zM539 1546q2 48 18 85q42 98 130 98q28 0 52.5 -12.5t71.5 -50.5t77 -38t44.5 19t19.5 66h78q-1 -82 -40.5 -131t-104.5 -49q-67 0 -128 57 q-27 26 -40 33t-31 7q-54 0 -65 -84h-82z" />
<glyph unicode="&#xd6;" horiz-adv-x="1570" d="M68 689q0 91 31 193t85 187q105 166 291 252q141 64 307 64q302 0 510 -207q93 -91 146 -208q64 -140 64 -294q0 -286 -205 -489q-209 -207 -517 -207q-312 0 -515 213q-197 206 -197 496zM200 692q0 -248 151 -415q79 -87 191 -137q115 -51 241 -51q245 0 422 183 q165 170 165 401q0 166 -84 312q-84 147 -229 225q-124 66 -275 66q-248 0 -415 -169q-80 -81 -124 -193q-43 -109 -43 -222zM542 1630q0 29 21.5 49.5t51.5 20.5q31 0 52 -21t21 -52q0 -30 -21.5 -51.5t-51.5 -21.5t-51.5 22t-21.5 54zM884 1631q0 29 21 49.5t51 20.5 t51 -21.5t21 -51.5q0 -31 -21 -53t-50 -22q-30 0 -51.5 23t-21.5 55z" />
<glyph unicode="&#xd7;" d="M88 395l287 288l-287 287l82 82l287 -287l287 287l83 -82l-288 -287l288 -288l-83 -82l-287 288l-287 -288z" />
<glyph unicode="&#xd8;" horiz-adv-x="1571" d="M68 680q0 206 116 388q108 169 291 252q142 65 306 65q215 0 394 -112l79 100l92 -71l-78 -100q234 -219 234 -525q0 -287 -205 -490q-209 -207 -518 -207q-216 0 -388 108l-104 -132l-92 72l103 132q-79 73 -128 156q-102 171 -102 364zM200 683q0 -124 44.5 -237 t126.5 -194l732 931q-139 93 -322 93q-249 0 -414 -169q-167 -170 -167 -424zM462 179q150 -90 318 -90q248 0 425 183q165 171 165 401q0 190 -108 351q-28 42 -69 84z" />
<glyph unicode="&#xd9;" horiz-adv-x="1158" d="M116 526v839h123v-839q0 -124 12.5 -188t45.5 -114q90 -135 274 -135q222 0 305 162q43 85 43 274v840h123v-838q0 -140 -18 -223.5t-62 -146.5q-124 -177 -388 -177q-279 0 -395 205q-63 111 -63 341zM491 1731l95 52l136 -260l-52 -30z" />
<glyph unicode="&#xda;" horiz-adv-x="1158" d="M116 526v839h123v-839q0 -124 12.5 -188t45.5 -114q90 -135 274 -135q222 0 305 162q43 85 43 274v840h123v-838q0 -140 -18 -223.5t-62 -146.5q-124 -177 -388 -177q-279 0 -395 205q-63 111 -63 341zM491 1523l135 260l96 -52l-180 -238z" />
<glyph unicode="&#xdb;" horiz-adv-x="1158" d="M116 526v839h123v-839q0 -124 12.5 -188t45.5 -114q90 -135 274 -135q222 0 305 162q43 85 43 274v840h123v-838q0 -140 -18 -223.5t-62 -146.5q-124 -177 -388 -177q-279 0 -395 205q-63 111 -63 341zM346 1543l184 231h100l182 -231l-56 -44l-177 179l-182 -172z" />
<glyph unicode="&#xdc;" horiz-adv-x="1158" d="M116 526v839h123v-839q0 -124 12.5 -188t45.5 -114q90 -135 274 -135q222 0 305 162q43 85 43 274v840h123v-838q0 -140 -18 -223.5t-62 -146.5q-124 -177 -388 -177q-279 0 -395 205q-63 111 -63 341zM336 1630q0 29 21.5 49.5t51.5 20.5q31 0 52 -21t21 -52 q0 -30 -21.5 -51.5t-51.5 -21.5t-51.5 22t-21.5 54zM678 1631q0 29 21 49.5t51 20.5t51 -21.5t21 -51.5q0 -31 -21 -53t-50 -22q-31 0 -52 23t-21 55z" />
<glyph unicode="&#xdd;" horiz-adv-x="967" d="M-7 1365h136l356 -658l359 658h137l-442 -795v-570h-123v570zM409 1523l135 260l96 -52l-180 -238z" />
<glyph unicode="&#xde;" horiz-adv-x="872" d="M130 0v1365h123v-205h64q162 0 229.5 -10t118.5 -42q153 -94 153 -325q0 -157 -75 -255q-58 -75 -139.5 -101t-259.5 -26h-91v-401h-123zM253 510h100q105 0 146.5 6.5t77.5 27.5q114 68 114 238q0 181 -119 242q-35 18 -73.5 22.5t-159.5 4.5h-86v-541z" />
<glyph unicode="&#xdf;" horiz-adv-x="1001" d="M100 0v1093q0 122 6.5 171.5t28.5 98.5q43 95 138 144q79 40 179 40q177 0 277 -113q88 -99 88 -242q0 -238 -220 -327q101 -25 172 -82q169 -134 169 -356q0 -211 -151 -340q-118 -101 -279 -101q-75 0 -170 29v108q83 -33 153 -33q155 0 248 110q81 97 81 232 q0 160 -111 265q-105 100 -279 105l-92 2v104q151 1 225 34q72 32 111 94.5t39 145.5q0 113 -71 185q-74 76 -193 76q-82 0 -139 -40.5t-78 -112.5q-17 -58 -17 -196v-1094h-115z" />
<glyph unicode="&#xe0;" horiz-adv-x="976" d="M63 419q0 197 114 325q110 123 285 123q183 0 299 -147v133h115v-853h-115v133q-117 -147 -299 -147q-185 0 -300 135q-99 116 -99 298zM180 429q0 -180 104 -270q80 -70 188 -70q124 0 209 85q81 82 81 257q0 152 -72 238q-80 95 -214 95q-155 0 -238 -126 q-58 -89 -58 -209zM359 1204l95 52l136 -259l-51 -30z" />
<glyph unicode="&#xe1;" horiz-adv-x="976" d="M63 419q0 197 114 325q110 123 285 123q183 0 299 -147v133h115v-853h-115v133q-117 -147 -299 -147q-185 0 -300 135q-99 116 -99 298zM180 429q0 -180 104 -270q80 -70 188 -70q124 0 209 85q81 82 81 257q0 152 -72 238q-80 95 -214 95q-155 0 -238 -126 q-58 -89 -58 -209zM406 997l136 259l96 -52l-180 -237z" />
<glyph unicode="&#xe2;" horiz-adv-x="976" d="M63 419q0 197 114 325q110 123 285 123q183 0 299 -147v133h115v-853h-115v133q-117 -147 -299 -147q-185 0 -300 135q-99 116 -99 298zM180 429q0 -180 104 -270q80 -70 188 -70q124 0 209 85q81 82 81 257q0 152 -72 238q-80 95 -214 95q-155 0 -238 -126 q-58 -89 -58 -209zM255 1016l184 231h100l182 -231l-56 -44l-177 179l-182 -172z" />
<glyph unicode="&#xe3;" horiz-adv-x="976" d="M63 419q0 197 114 325q110 123 285 123q183 0 299 -147v133h115v-853h-115v133q-117 -147 -299 -147q-185 0 -300 135q-99 116 -99 298zM180 429q0 -180 104 -270q80 -70 188 -70q124 0 209 85q81 82 81 257q0 152 -72 238q-80 95 -214 95q-155 0 -238 -126 q-58 -89 -58 -209zM242 1020q2 48 18 85q42 97 130 97q28 0 52 -12t72 -50t77 -38q31 0 45 19t19 65h79q-2 -82 -41.5 -130.5t-104.5 -48.5q-67 0 -128 57q-27 26 -40 33t-31 7q-54 0 -65 -84h-82z" />
<glyph unicode="&#xe4;" horiz-adv-x="976" d="M63 419q0 197 114 325q110 123 285 123q183 0 299 -147v133h115v-853h-115v133q-117 -147 -299 -147q-185 0 -300 135q-99 116 -99 298zM180 429q0 -180 104 -270q80 -70 188 -70q124 0 209 85q81 82 81 257q0 152 -72 238q-80 95 -214 95q-155 0 -238 -126 q-58 -89 -58 -209zM268 1104q0 29 21.5 49.5t51.5 20.5q31 0 52 -21t21 -52q0 -30 -21.5 -51.5t-51.5 -21.5t-51.5 22.5t-21.5 53.5zM610 1105q0 29 21 49.5t51 20.5t51 -21.5t21 -51.5q0 -31 -21 -53t-50 -22q-31 0 -52 23t-21 55z" />
<glyph unicode="&#xe5;" horiz-adv-x="976" d="M63 419q0 197 114 325q110 123 285 123q183 0 299 -147v133h115v-853h-115v133q-117 -147 -299 -147q-185 0 -300 135q-99 116 -99 298zM180 429q0 -180 104 -270q80 -70 188 -70q124 0 209 85q81 82 81 257q0 152 -72 238q-80 95 -214 95q-155 0 -238 -126 q-58 -89 -58 -209zM338 1112q0 62 44 106.5t105 44.5q62 0 106 -44.5t44 -107.5q0 -62 -43.5 -106t-105.5 -44q-63 0 -106.5 44t-43.5 107zM420 1111q0 -29 20.5 -49.5t49.5 -20.5t49 20.5t20 50.5t-20.5 51t-49.5 21q-28 0 -48.5 -21.5t-20.5 -51.5z" />
<glyph unicode="&#xe6;" horiz-adv-x="1479" d="M55 278q0 101 60 176q102 125 287 125q137 0 254 -92v31q-1 65 -8.5 98.5t-27.5 61.5q-29 39 -79 62t-106 23q-136 0 -305 -89v120q143 73 319 73q112 0 197 -58q52 -35 84 -106q41 68 102 106q93 58 199 58q166 0 269 -104q61 -62 85.5 -136.5t29.5 -211.5h-654 q5 -124 54 -202q78 -124 236 -124q159 0 249 160l87 -47q-129 -216 -348 -216q-202 0 -317 174q-100 -174 -325 -174q-187 0 -282 115q-60 73 -60 177zM171 283q0 -64 40 -112q70 -82 210 -82q123 0 192 69q51 51 51 129q0 67 -39 112q-72 84 -205 84q-149 0 -217 -97 q-32 -45 -32 -103zM765 513h535q-11 87 -42 138q-32 52 -91.5 82t-132.5 30q-114 0 -183 -64t-86 -186z" />
<glyph unicode="&#xe7;" horiz-adv-x="819" d="M64 425q0 200 151 331q126 111 301 111q66 0 118 -16t130 -60v-144q-69 65 -124 90.5t-127 25.5q-155 0 -252 -115q-80 -94 -80 -224q0 -160 113 -257q88 -77 214 -77q148 0 256 123v-144q-108 -83 -261 -83q-194 0 -319 133q-120 128 -120 306zM245 -302l209 233h105 l-139 -233h-175z" />
<glyph unicode="&#xe8;" horiz-adv-x="897" d="M64 429q0 185 97 302q113 136 298 136q149 0 251 -96q65 -62 93 -142.5t29 -213.5h-651q2 -111 40 -184q74 -142 237 -142q156 0 253 162l93 -51q-128 -214 -348 -214q-201 0 -311 155q-81 116 -81 288zM181 513h531q-5 78 -39 133q-35 54 -94.5 85.5t-128.5 31.5 q-106 0 -181 -70t-88 -180zM319 1204l96 52l135 -259l-51 -30z" />
<glyph unicode="&#xe9;" horiz-adv-x="897" d="M64 429q0 185 97 302q113 136 298 136q149 0 251 -96q65 -62 93 -142.5t29 -213.5h-651q2 -111 40 -184q74 -142 237 -142q156 0 253 162l93 -51q-128 -214 -348 -214q-201 0 -311 155q-81 116 -81 288zM181 513h531q-5 78 -39 133q-35 54 -94.5 85.5t-128.5 31.5 q-106 0 -181 -70t-88 -180zM367 997l135 259l96 -52l-180 -237z" />
<glyph unicode="&#xea;" horiz-adv-x="897" d="M64 429q0 185 97 302q113 136 298 136q149 0 251 -96q65 -62 93 -142.5t29 -213.5h-651q2 -111 40 -184q74 -142 237 -142q156 0 253 162l93 -51q-128 -214 -348 -214q-201 0 -311 155q-81 116 -81 288zM181 513h531q-5 78 -39 133q-35 54 -94.5 85.5t-128.5 31.5 q-106 0 -181 -70t-88 -180zM243 1016l184 231h99l182 -231l-55 -44l-178 179l-181 -172z" />
<glyph unicode="&#xeb;" horiz-adv-x="897" d="M64 429q0 185 97 302q113 136 298 136q149 0 251 -96q65 -62 93 -142.5t29 -213.5h-651q2 -111 40 -184q74 -142 237 -142q156 0 253 162l93 -51q-128 -214 -348 -214q-201 0 -311 155q-81 116 -81 288zM181 513h531q-5 78 -39 133q-35 54 -94.5 85.5t-128.5 31.5 q-106 0 -181 -70t-88 -180zM205 1104q0 29 21.5 49.5t51.5 20.5q31 0 52 -21t21 -52q0 -30 -21.5 -51.5t-51.5 -21.5t-51.5 22.5t-21.5 53.5zM547 1105q0 29 21 49.5t51 20.5t51 -21.5t21 -51.5q0 -31 -21 -53t-50 -22q-30 0 -51.5 23t-21.5 55z" />
<glyph unicode="&#xec;" horiz-adv-x="314" d="M0 1204l96 52l135 -259l-51 -30zM99 0v853h115v-853h-115z" />
<glyph unicode="&#xed;" horiz-adv-x="314" d="M48 997l136 259l95 -52l-180 -237zM99 0v853h115v-853h-115z" />
<glyph unicode="&#xee;" horiz-adv-x="314" d="M-76 1016l184 231h100l182 -231l-56 -44l-177 179l-182 -172zM99 0v853h115v-853h-115z" />
<glyph unicode="&#xef;" horiz-adv-x="314" d="M-31 1104q0 29 21.5 49.5t51.5 20.5q31 0 52 -21t21 -52q0 -30 -21.5 -51.5t-51.5 -21.5t-51.5 22.5t-21.5 53.5zM100 0v853h115v-853h-115zM202 1105q0 29 21 49.5t51 20.5t51 -21.5t21 -51.5q0 -31 -21 -53t-50 -22q-30 0 -51.5 23t-21.5 55z" />
<glyph unicode="&#xf0;" horiz-adv-x="1013" d="M63 434q0 78 36 163t94 143q127 127 324 127q75 0 160 -31l-156 326l-159 -95l-28 49l157 101l-84 153l56 35l92 -149l163 97l33 -51l-163 -98l238 -382q123 -197 123 -380q0 -195 -116 -321q-124 -135 -327 -135t-324 134q-52 59 -85.5 147t-33.5 167zM180 432 q0 -146 89 -243q92 -99 232 -99q163 0 259 123q72 92 72 220q0 143 -92 237q-91 93 -229 93q-151 0 -249 -110q-82 -92 -82 -221z" />
<glyph unicode="&#xf1;" horiz-adv-x="866" d="M100 0v853h115v-110q95 124 257 124q88 0 158 -36t104 -98q33 -63 33 -216v-517h-115v512q0 122 -29 171q-47 80 -165 80q-86 0 -146.5 -44.5t-81.5 -122.5q-15 -57 -15 -147v-449h-115zM188 1020q1 48 18 85q41 97 129 97q29 0 53 -12t71 -50q48 -38 78 -38t44.5 19 t18.5 65h79q-2 -82 -41.5 -130.5t-104.5 -48.5q-67 0 -128 57q-27 26 -39.5 33t-31.5 7q-54 0 -65 -84h-81z" />
<glyph unicode="&#xf2;" horiz-adv-x="1014" d="M64 434q0 193 152 324q126 109 297 109q208 0 338 -153q99 -117 99 -283q0 -199 -138 -328q-126 -117 -311 -117q-135 0 -243 71q-97 65 -149 174q-45 93 -45 203zM181 432q0 -146 89 -243q92 -99 232 -99q163 0 259 123q72 92 72 220q0 143 -92 237q-91 93 -229 93 q-151 0 -249 -110q-82 -92 -82 -221zM350 1204l96 52l136 -259l-52 -30z" />
<glyph unicode="&#xf3;" horiz-adv-x="1014" d="M64 434q0 193 152 324q126 109 297 109q208 0 338 -153q99 -117 99 -283q0 -199 -138 -328q-126 -117 -311 -117q-135 0 -243 71q-97 65 -149 174q-45 93 -45 203zM181 432q0 -146 89 -243q92 -99 232 -99q163 0 259 123q72 92 72 220q0 143 -92 237q-91 93 -229 93 q-151 0 -249 -110q-82 -92 -82 -221zM398 997l136 259l96 -52l-180 -237z" />
<glyph unicode="&#xf4;" horiz-adv-x="1014" d="M64 434q0 193 152 324q126 109 297 109q208 0 338 -153q99 -117 99 -283q0 -199 -138 -328q-126 -117 -311 -117q-135 0 -243 71q-97 65 -149 174q-45 93 -45 203zM181 432q0 -146 89 -243q92 -99 232 -99q163 0 259 123q72 92 72 220q0 143 -92 237q-91 93 -229 93 q-151 0 -249 -110q-82 -92 -82 -221zM274 1016l184 231h100l182 -231l-55 -44l-178 179l-181 -172z" />
<glyph unicode="&#xf5;" horiz-adv-x="1014" d="M64 434q0 193 152 324q126 109 297 109q208 0 338 -153q99 -117 99 -283q0 -199 -138 -328q-126 -117 -311 -117q-135 0 -243 71q-97 65 -149 174q-45 93 -45 203zM181 432q0 -146 89 -243q92 -99 232 -99q163 0 259 123q72 92 72 220q0 143 -92 237q-91 93 -229 93 q-151 0 -249 -110q-82 -92 -82 -221zM262 1020q1 48 17 85q42 97 130 97q28 0 52.5 -12t71.5 -50q48 -38 78 -38t44 19t19 65h79q-2 -82 -41.5 -130.5t-104.5 -48.5q-67 0 -128 57q-27 26 -40 33t-31 7q-54 0 -65 -84h-81z" />
<glyph unicode="&#xf6;" horiz-adv-x="1014" d="M64 434q0 193 152 324q126 109 297 109q208 0 338 -153q99 -117 99 -283q0 -199 -138 -328q-126 -117 -311 -117q-135 0 -243 71q-97 65 -149 174q-45 93 -45 203zM181 432q0 -146 89 -243q92 -99 232 -99q163 0 259 123q72 92 72 220q0 143 -92 237q-91 93 -229 93 q-151 0 -249 -110q-82 -92 -82 -221zM264 1104q0 29 21.5 49.5t51.5 20.5q31 0 52 -21t21 -52q0 -30 -21.5 -51.5t-51.5 -21.5t-51.5 22t-21.5 54zM606 1105q0 29 21 49.5t51 20.5t51 -21.5t21 -51.5q0 -31 -21 -53t-50 -22q-31 0 -52 23t-21 55z" />
<glyph unicode="&#xf7;" d="M61 625v116h792v-116h-792zM360 400q0 39 28.5 67t67.5 28q41 0 69.5 -28.5t28.5 -69.5q0 -40 -28.5 -68t-68.5 -28t-68.5 29t-28.5 70zM360 969q0 39 28.5 67t67.5 28q41 0 69.5 -28.5t28.5 -69.5q0 -40 -28.5 -68t-68.5 -28t-68.5 29t-28.5 70z" />
<glyph unicode="&#xf8;" horiz-adv-x="1014" d="M64 429q0 200 152 330q127 108 298 108q143 0 268 -88l72 72l76 -73l-72 -73q51 -71 71.5 -133t20.5 -142q0 -198 -138 -327q-126 -117 -307 -117q-148 0 -272 88l-73 -74l-76 75l74 74q-94 126 -94 280zM181 426q0 -97 57 -196l467 471q-91 62 -191 62q-154 0 -252 -110 q-81 -92 -81 -227zM311 153q86 -63 193 -63q162 0 257 123q72 93 72 220q0 103 -55 191z" />
<glyph unicode="&#xf9;" horiz-adv-x="855" d="M100 338v515h115v-509q0 -113 27 -164q22 -41 71 -65.5t112 -24.5q133 0 185 88q30 51 30 171v504h115v-503q0 -112 -11 -153q-34 -120 -143 -174q-75 -37 -174 -37q-181 0 -265 106q-37 46 -49.5 96.5t-12.5 149.5zM312 1204l96 52l135 -259l-51 -30z" />
<glyph unicode="&#xfa;" horiz-adv-x="855" d="M100 338v515h115v-509q0 -113 27 -164q22 -41 71 -65.5t112 -24.5q133 0 185 88q30 51 30 171v504h115v-503q0 -112 -11 -153q-34 -120 -143 -174q-75 -37 -174 -37q-181 0 -265 106q-37 46 -49.5 96.5t-12.5 149.5zM360 997l135 259l96 -52l-180 -237z" />
<glyph unicode="&#xfb;" horiz-adv-x="855" d="M100 338v515h115v-509q0 -113 27 -164q22 -41 71 -65.5t112 -24.5q133 0 185 88q30 51 30 171v504h115v-503q0 -112 -11 -153q-34 -120 -143 -174q-75 -37 -174 -37q-181 0 -265 106q-37 46 -49.5 96.5t-12.5 149.5zM195 1016l184 231h100l182 -231l-56 -44l-177 179 l-182 -172z" />
<glyph unicode="&#xfc;" horiz-adv-x="855" d="M100 338v515h115v-509q0 -113 27 -164q22 -41 71 -65.5t112 -24.5q133 0 185 88q30 51 30 171v504h115v-503q0 -112 -11 -153q-34 -120 -143 -174q-75 -37 -174 -37q-181 0 -265 106q-37 46 -49.5 96.5t-12.5 149.5zM185 1104q0 29 21.5 49.5t51.5 20.5q31 0 52 -21 t21 -52q0 -30 -21.5 -51.5t-51.5 -21.5t-51.5 22t-21.5 54zM527 1105q0 29 21 49.5t51 20.5t51 -21.5t21 -51.5q0 -31 -21 -53t-50 -22q-30 0 -51.5 23t-21.5 55z" />
<glyph unicode="&#xfd;" horiz-adv-x="854" d="M7 853h130l327 -614q17 45 32 79l231 535h121l-535 -1235h-119l209 491zM360 997l135 259l96 -52l-180 -237z" />
<glyph unicode="&#xfe;" horiz-adv-x="976" d="M100 -382v1918h115v-821q49 60 92 90q89 62 205 62q193 0 310 -144q91 -113 91 -295q0 -200 -115 -322q-113 -120 -288 -120q-92 0 -161 34t-134 113v-515h-115zM215 427q0 -174 78 -252q84 -85 204 -85q160 0 244 127q55 83 55 210q0 161 -83 250q-80 86 -209 86 q-147 0 -229 -111q-60 -81 -60 -225z" />
<glyph unicode="&#xff;" horiz-adv-x="854" d="M7 853h130l327 -614q17 45 32 79l231 535h121l-535 -1235h-119l209 491zM185 1104q0 29 21.5 49.5t51.5 20.5q31 0 52 -21t21 -52q0 -30 -21.5 -51.5t-51.5 -21.5t-51.5 22.5t-21.5 53.5zM527 1105q0 29 21 49.5t51 20.5t51 -21.5t21 -51.5q0 -31 -21 -53t-50 -22 q-30 0 -51.5 23t-21.5 55z" />
<glyph unicode="&#x152;" horiz-adv-x="2103" d="M68 680q0 206 116 389q108 169 291 252q141 64 307 64q354 0 583 -294v274h655v-109h-532v-468h532v-109h-532v-570h532v-109h-655v268q-230 -288 -587 -288q-310 0 -513 212q-98 103 -149 237q-48 123 -48 251zM200 693q0 -249 151 -416q79 -87 191 -137 q114 -51 239 -51q242 0 414 183q161 171 161 402q0 165 -82 311q-82 148 -223 225q-121 66 -271 66q-246 0 -413 -168q-80 -82 -124 -193q-43 -110 -43 -222z" />
<glyph unicode="&#x153;" horiz-adv-x="1658" d="M64 424q0 206 152 336q125 107 294 107q113 0 215.5 -52.5t153.5 -136.5q23 40 60 76q120 113 287 113q146 0 245 -93q64 -60 92.5 -144t30.5 -215h-650q0 -81 13 -128q27 -92 99 -145t162 -53q157 0 254 160l93 -50q-42 -72 -91 -115q-112 -99 -251 -99q-69 0 -145 27.5 t-135 74.5q-37 29 -67 84q-34 -51 -85 -89q-131 -96 -296 -96q-129 0 -237 71q-98 64 -150 172q-44 92 -44 195zM181 433q0 -144 89 -244q88 -99 230 -99q165 0 259 124q72 93 72 219q0 142 -91 235q-92 95 -229 95q-149 0 -247 -111q-83 -93 -83 -219zM947 513h527 q-6 80 -39 133q-32 54 -92.5 85.5t-130.5 31.5q-107 0 -179 -68t-86 -182z" />
<glyph unicode="&#x178;" horiz-adv-x="967" d="M-7 1365h136l356 -658l359 658h137l-442 -795v-570h-123v570zM241 1630q0 29 21.5 49.5t51.5 20.5q31 0 52 -21t21 -52q0 -30 -21.5 -51.5t-51.5 -21.5t-51.5 22.5t-21.5 53.5zM583 1631q0 29 21 49.5t51 20.5t51 -21.5t21 -51.5q0 -31 -21 -53t-50 -22q-31 0 -52 23 t-21 55z" />
<glyph unicode="&#x2c6;" horiz-adv-x="1024" d="M279 1016l184 231h100l182 -231l-56 -44l-177 179l-182 -172z" />
<glyph unicode="&#x2dc;" horiz-adv-x="1024" d="M267 1020q2 48 18 85q42 97 130 97q28 0 52 -12t72 -50q47 -38 77 -38t44.5 19t18.5 65h79q-2 -82 -41.5 -130.5t-103.5 -48.5q-67 0 -129 57q-27 26 -39.5 33t-30.5 7q-54 0 -66 -84h-81z" />
<glyph unicode="&#x2000;" horiz-adv-x="894" />
<glyph unicode="&#x2001;" horiz-adv-x="1789" />
<glyph unicode="&#x2002;" horiz-adv-x="894" />
<glyph unicode="&#x2003;" horiz-adv-x="1789" />
<glyph unicode="&#x2004;" horiz-adv-x="596" />
<glyph unicode="&#x2005;" horiz-adv-x="447" />
<glyph unicode="&#x2006;" horiz-adv-x="298" />
<glyph unicode="&#x2007;" horiz-adv-x="298" />
<glyph unicode="&#x2008;" horiz-adv-x="223" />
<glyph unicode="&#x2009;" horiz-adv-x="357" />
<glyph unicode="&#x200a;" horiz-adv-x="99" />
<glyph unicode="&#x2010;" horiz-adv-x="363" d="M0 373v106h363v-106h-363z" />
<glyph unicode="&#x2011;" horiz-adv-x="363" d="M0 373v106h363v-106h-363z" />
<glyph unicode="&#x2012;" horiz-adv-x="363" d="M0 373v106h363v-106h-363z" />
<glyph unicode="&#x2013;" horiz-adv-x="806" d="M68 373v106h669v-106h-669z" />
<glyph unicode="&#x2014;" horiz-adv-x="1106" d="M0 373v106h1106v-106h-1106z" />
<glyph unicode="&#x2018;" horiz-adv-x="410" d="M113 926l220 464l78 -34l-178 -476z" />
<glyph unicode="&#x2019;" horiz-adv-x="464" d="M26 915l177 475l121 -45l-220 -465z" />
<glyph unicode="&#x201a;" horiz-adv-x="464" d="M26 -291l177 475l121 -45l-220 -465z" />
<glyph unicode="&#x201c;" horiz-adv-x="724" d="M141 926l220 464l78 -34l-178 -476zM400 926l220 464l78 -34l-177 -476z" />
<glyph unicode="&#x201d;" horiz-adv-x="724" d="M26 915l177 475l121 -45l-220 -465zM285 915l178 475l120 -45l-219 -465z" />
<glyph unicode="&#x201e;" horiz-adv-x="724" d="M26 -291l177 475l121 -45l-220 -465zM285 -291l178 475l120 -45l-219 -465z" />
<glyph unicode="&#x2022;" horiz-adv-x="1365" d="M401 696q0 121 84 203q84 83 202 83q112 0 194 -83q83 -84 83 -203q0 -118 -82 -202q-83 -84 -199 -84t-198 83q-84 84 -84 203z" />
<glyph unicode="&#x2026;" horiz-adv-x="1229" d="M108 85q0 39 28.5 67t67.5 28q41 0 69.5 -28.5t28.5 -69.5q0 -40 -28.5 -68t-68.5 -28t-68.5 29t-28.5 70zM518 85q0 39 28.5 67t67.5 28q41 0 69.5 -28.5t28.5 -69.5q0 -40 -28.5 -68t-68.5 -28t-68.5 29t-28.5 70zM927 85q0 39 28.5 67t67.5 28q41 0 69.5 -28.5 t28.5 -69.5q0 -39 -28.5 -67.5t-68.5 -28.5t-68.5 29t-28.5 70z" />
<glyph unicode="&#x202f;" horiz-adv-x="357" />
<glyph unicode="&#x2039;" horiz-adv-x="382" d="M68 430l157 306l61 -26l-98 -280l98 -288l-61 -25z" />
<glyph unicode="&#x203a;" horiz-adv-x="382" d="M96 142l99 288l-99 280l61 26l157 -306l-157 -313z" />
<glyph unicode="&#x205f;" horiz-adv-x="447" />
<glyph unicode="&#x20ac;" horiz-adv-x="1282" d="M0 491l56 109h103q-5 38 -5 79q0 36 4 71h-158l56 109h122q24 88 67 165q102 183 280 279q155 83 346 83q192 0 369 -92l-55 -107q-133 90 -320 90q-195 0 -347 -114.5t-207 -303.5h705l-57 -109h-669q-3 -38 -3 -68q0 -36 5 -82h589l-56 -109h-510q12 -36 27 -67 q82 -176 253 -267q127 -68 279 -68q162 0 311 89v-134q-139 -64 -317 -64q-282 0 -476 174q-154 138 -211 337h-181z" />
<glyph unicode="&#x2122;" horiz-adv-x="1388" d="M-3 1290v75h489v-75h-202v-703h-86v703h-201zM503 587l142 817l255 -564q18 -39 38 -89q20 52 35 85l254 569l140 -818h-87l-79 470q-5 31 -9 71l-3 -7q-12 -30 -16 -38l-235 -529l-238 528q-10 22 -19 45q-1 -22 -9 -67l-80 -473h-89z" />
<glyph unicode="&#x25fc;" horiz-adv-x="855" d="M0 0v855h855v-855h-855z" />
<glyph unicode="&#xfb04;" horiz-adv-x="1454" d="M34 755v98h130v415q0 75 5.5 112t22.5 70q53 103 196 103q71 0 147 -38v-125q-69 59 -138 59q-64 0 -91 -43t-27 -142v-411h422v415q0 75 5.5 112t22.5 70q53 103 196 103q71 0 148 -38v-125q-70 59 -139 59q-63 0 -90.5 -43t-27.5 -142v-411h257v-98h-257v-755h-115v755 h-422v-755h-115v755h-130zM1239 0v1536h115v-1536h-115z" />
</font>
</defs>
</svg>
