<?xml version="1.0" encoding="utf-8"?>
<!-- Generator: Adobe Illustrator 16.0.0, SVG Export Plug-In . SVG Version: 6.00 Build 0)  -->
<!DOCTYPE svg PUBLIC "-//W3C//DTD SVG 1.1//EN" "http://www.w3.org/Graphics/SVG/1.1/DTD/svg11.dtd">
<svg version="1.1" id="Layer_1" xmlns="http://www.w3.org/2000/svg" xmlns:xlink="http://www.w3.org/1999/xlink" x="0px" y="0px"
	 width="17.17px" height="15.59px" viewBox="-1.172 -1.211 17.17 15.59" enable-background="new -1.172 -1.211 17.17 15.59"
	 xml:space="preserve">
<g>
	<polygon fill="#504C4D" points="14.826,3.363 12.44,3.363 12.44,5.748 11.847,5.748 11.847,3.363 9.461,3.363 9.461,2.767 
		11.847,2.767 11.847,0.383 12.44,0.383 12.44,2.767 14.826,2.767 	"/>
	<path fill="#504C4D" d="M5.68,6.148c0-0.857,1.886-1.106,1.886-3.12c0-1.209-0.111-1.937-1.063-2.366
		c0-0.299,1.68-0.102,1.68-0.663c-0.291,0-3.68,0-3.68,0S0.777,0.091,0.777,3.246c0,3.154,3.257,2.789,3.257,2.789s0,0.478,0,0.8
		c0,0.323,0.437,0.214,0.491,0.868C4.305,7.703,0,7.587,0,10.445s3.794,2.721,3.794,2.721s4.389,0.201,4.389-3.349
		C8.183,7.691,5.68,7.005,5.68,6.148z M2.342,3.558c-0.344-1.267,0.11-2.492,1.015-2.739C4.261,0.573,5.273,1.4,5.618,2.667
		c0.345,1.267-0.109,2.493-1.014,2.74C3.699,5.652,2.687,4.825,2.342,3.558z M4.227,12.382c-1.519,0.104-2.811-0.711-2.886-1.819
		c-0.075-1.106,1.096-2.09,2.614-2.19c1.519-0.104,2.812,0.711,2.887,1.817C6.917,11.298,5.745,12.281,4.227,12.382z"/>
</g>
</svg>
