<?xml version="1.0" encoding="utf-8"?>
<!-- Generator: Adobe Illustrator 16.0.0, SVG Export Plug-In . SVG Version: 6.00 Build 0)  -->
<!DOCTYPE svg PUBLIC "-//W3C//DTD SVG 1.1//EN" "http://www.w3.org/Graphics/SVG/1.1/DTD/svg11.dtd">
<svg version="1.1" id="Layer_1" xmlns="http://www.w3.org/2000/svg" xmlns:xlink="http://www.w3.org/1999/xlink" x="0px" y="0px"
	 width="396.071px" height="87.887px" viewBox="0 0 396.071 87.887" enable-background="new 0 0 396.071 87.887"
	 xml:space="preserve">
<g>
	<path fill="#333333" d="M117.705,16.701l-7.924-0.032c-0.53-0.003-0.921-0.444-0.921-0.927l0.013-2.725
		c0.003-0.485,0.397-0.924,0.93-0.921l20.901,0.086c0.536,0,0.924,0.441,0.921,0.93l-0.012,2.718c0,0.489-0.392,0.925-0.928,0.921
		l-7.923-0.028l-0.117,28.533c-0.003,0.485-0.441,0.917-0.93,0.917l-3.206-0.012c-0.487,0-0.924-0.436-0.918-0.928L117.705,16.701z"
		/>
	<path fill="#333333" d="M144.564,13.178c0.003-0.489,0.442-0.924,0.927-0.921l3.211,0.013c0.536,0,0.921,0.441,0.918,0.927
		l-0.057,13.564l17.79,0.073l0.06-13.561c0-0.489,0.391-0.924,0.924-0.924l3.208,0.019c0.489,0,0.921,0.438,0.921,0.924
		l-0.13,32.181c-0.003,0.485-0.441,0.921-0.927,0.918l-3.21-0.014c-0.533-0.003-0.921-0.44-0.918-0.927l0.057-14.047l-17.791-0.076
		l-0.06,14.05c-0.003,0.486-0.391,0.922-0.927,0.922l-3.204-0.016c-0.489-0.004-0.924-0.438-0.924-0.928L144.564,13.178z"/>
	<path fill="#333333" d="M189.591,13.374c0-0.486,0.391-0.921,0.924-0.921l19.443,0.079c0.54,0.003,0.927,0.445,0.921,0.934
		l-0.009,2.718c-0.003,0.486-0.391,0.921-0.928,0.921l-15.362-0.066l-0.038,9.918l12.979,0.051c0.485,0,0.921,0.445,0.918,0.933
		l-0.01,2.716c0,0.539-0.441,0.927-0.928,0.921l-12.977-0.051l-0.048,10.449l15.361,0.063c0.537,0.006,0.924,0.44,0.921,0.93
		l-0.009,2.672c0,0.485-0.394,0.924-0.93,0.921l-19.441-0.082c-0.539,0-0.924-0.438-0.92-0.925L189.591,13.374z"/>
	<path fill="#333333" d="M240.987,16.414l-7.926-0.031c-0.533-0.004-0.922-0.439-0.921-0.928l0.013-2.721
		c0-0.486,0.394-0.921,0.93-0.921l20.898,0.085c0.536,0.003,0.924,0.444,0.918,0.933l-0.009,2.719c0,0.486-0.391,0.924-0.924,0.921
		l-7.927-0.032l-0.118,28.533c-0.002,0.488-0.44,0.917-0.927,0.917l-3.209-0.013c-0.484,0-0.919-0.441-0.919-0.931L240.987,16.414z"
		/>
	<path fill="#333333" d="M261.297,44.707l15.057-32.654c0.147-0.29,0.584-0.533,0.83-0.533l0.484,0.006
		c0.246,0,0.678,0.243,0.827,0.536l14.693,32.771c0.284,0.638-0.107,1.265-0.836,1.265l-3.063-0.013
		c-0.58,0-0.921-0.296-1.113-0.734l-2.986-6.671l-15.896-0.065c-0.983,2.232-2.012,4.419-2.993,6.647
		c-0.145,0.338-0.538,0.727-1.122,0.722l-3.063-0.012C261.389,45.968,261.004,45.337,261.297,44.707 M283.362,34.491l-5.926-13.344
		h-0.243l-5.989,13.297L283.362,34.491z"/>
	<path fill="#333333" d="M304.87,13.058c0-0.486,0.391-0.918,0.924-0.918l10.887,0.044c5.886,0.029,10.1,3.93,10.08,9.033
		c-0.016,3.75-2.801,6.408-5.091,7.714c2.571,1.079,6.062,3.475,6.043,7.944c-0.019,5.443-4.51,9.367-10.638,9.339l-11.42-0.047
		c-0.536-0.004-0.921-0.442-0.921-0.929L304.87,13.058z M317.049,41.743c2.965,0.009,5.261-2.266,5.273-5.277
		c0.01-2.967-2.801-5.118-5.961-5.131l-6.66-0.028l-0.041,10.407L317.049,41.743z M316.331,26.963
		c3.113,0.013,5.018-2.268,5.027-5.185c0.016-2.961-1.873-5.011-4.986-5.027l-6.561-0.025l-0.044,10.209L316.331,26.963z"/>
	<path fill="#333333" d="M343.796,13.231c0-0.489,0.392-0.924,0.924-0.921l3.207,0.013c0.489,0,0.925,0.441,0.921,0.93l-0.112,28.58
		l13.173,0.05c0.529,0.008,0.921,0.445,0.918,0.932l-0.012,2.671c-0.005,0.485-0.393,0.924-0.926,0.924l-17.311-0.076
		c-0.527,0-0.918-0.44-0.918-0.927L343.796,13.231z"/>
	<path fill="#333333" d="M374.744,13.374c0-0.489,0.395-0.921,0.924-0.921l19.45,0.079c0.533,0,0.92,0.442,0.92,0.93l-0.015,2.722
		c0,0.486-0.392,0.921-0.929,0.918l-15.358-0.06l-0.037,9.912l12.974,0.057c0.486,0,0.922,0.438,0.922,0.924l-0.013,2.722
		c-0.003,0.533-0.441,0.924-0.931,0.924l-12.975-0.057l-0.045,10.449l15.359,0.063c0.537,0.003,0.924,0.441,0.921,0.927
		l-0.009,2.674c-0.003,0.486-0.391,0.925-0.927,0.925l-19.444-0.078c-0.536-0.008-0.92-0.445-0.92-0.929L374.744,13.374z"/>
	<path fill="#333333" d="M126.161,64.628l-7.949-0.062c-0.311,0-0.567,0.258-0.567,0.564l-0.09,12.706
		c0,0.146,0.054,0.285,0.155,0.394c0.103,0.109,0.245,0.166,0.403,0.171l2.268,0.021c0.303,0,0.559-0.265,0.564-0.56l0.028-4.469
		l4.185,0.032c0.297,0,0.558-0.265,0.568-0.56l0.011-2.095c0-0.139-0.062-0.289-0.166-0.394c-0.108-0.113-0.248-0.171-0.388-0.171
		l-4.184-0.03l0.016-2.363l5.123,0.031c0.31,0,0.566-0.254,0.566-0.555l0.015-2.099c0-0.14-0.054-0.285-0.155-0.388
		C126.458,64.691,126.311,64.628,126.161,64.628"/>
	<path fill="#333333" d="M143.333,69.098c0.016-2.4-1.939-4.36-4.355-4.376l-5.747-0.041c-0.305,0-0.558,0.248-0.558,0.553
		l-0.088,12.713c-0.006,0.145,0.051,0.284,0.149,0.388c0.112,0.113,0.249,0.177,0.401,0.177l2.29,0.015
		c0.295,0,0.559-0.258,0.559-0.559l0.036-4.695h1.009l2.461,5.001c0.073,0.139,0.244,0.284,0.487,0.289l2.554,0.016
		c0.218,0,0.393-0.098,0.497-0.264c0.104-0.171,0.109-0.394,0.005-0.579l-2.493-4.707C142.257,72.279,143.318,70.789,143.333,69.098
		 M139.961,69.133c0,0.708-0.6,1.324-1.277,1.324l-2.643-0.021l0.026-2.591l2.643,0.01c0.331,0,0.641,0.14,0.884,0.378
		C139.826,68.477,139.961,68.797,139.961,69.133"/>
	<path fill="#333333" d="M155.87,64.644h-0.057c-3.946,0-7.055,3.108-7.086,7.08c-0.026,3.973,3.062,7.112,7.039,7.139h0.052
		c3.956,0,7.08-3.094,7.111-7.039c0.011-1.909-0.713-3.709-2.042-5.06C159.563,65.41,157.783,64.66,155.87,64.644 M155.818,68.11
		v-0.191l0.026,0.191c0.962,0.01,1.877,0.397,2.565,1.102c0.683,0.703,1.055,1.613,1.05,2.591c-0.016,1.986-1.645,3.594-3.672,3.594
		c-0.957-0.005-1.862-0.393-2.539-1.086c-0.683-0.692-1.061-1.603-1.056-2.564C152.208,69.744,153.832,68.11,155.818,68.11"/>
	<path fill="#333333" d="M181.202,64.831l-0.31-0.01c-0.171,0-0.409,0.113-0.497,0.299l-4.36,7.965l-4.241-8.021
		c-0.093-0.188-0.331-0.307-0.502-0.307h-0.305c-0.258,0-0.512,0.219-0.537,0.461l-2.266,12.895
		c-0.026,0.17,0.016,0.331,0.114,0.455c0.114,0.124,0.269,0.196,0.445,0.196l2.265,0.016c0.274,0,0.528-0.212,0.559-0.471
		l0.812-5.38l2.937,5.751c0.088,0.182,0.311,0.321,0.502,0.326h0.352c0.165,0,0.408-0.129,0.501-0.314l3.01-5.71l0.756,5.384
		c0.025,0.258,0.284,0.476,0.558,0.486l2.26,0.015c0.171,0,0.331-0.072,0.44-0.191c0.103-0.118,0.15-0.283,0.119-0.46l-2.069-12.898
		C181.714,65.052,181.466,64.831,181.202,64.831"/>
	<path fill="#333333" d="M209.291,71.746l-3.867-0.031c-0.316,0-0.555,0.248-0.555,0.559l-0.015,1.908
		c0,0.146,0.051,0.279,0.155,0.384c0.103,0.103,0.248,0.159,0.402,0.159l1.009,0.006v0.78c-0.449,0.16-0.937,0.238-1.516,0.238
		H204.9c-1.986-0.016-3.589-1.655-3.568-3.651c0.011-2.017,1.618-3.656,3.604-3.656c0.978,0.005,1.732,0.295,2.385,0.899
		c0.238,0.171,0.548,0.176,0.791-0.036l1.515-1.593c0.119-0.114,0.182-0.264,0.166-0.419c-0.005-0.15-0.083-0.295-0.207-0.388
		c-1.328-1.174-3.118-1.877-4.805-1.894h-0.041c-3.884,0-7.064,3.171-7.091,7.061c-0.031,3.967,3.057,7.091,7.039,7.122h0.062
		c2.777,0,4.728-1.195,4.826-1.252c0.124-0.099,0.237-0.311,0.237-0.465l0.016-5.168C209.829,72.003,209.585,71.746,209.291,71.746"
		/>
	<path fill="#333333" d="M222.464,65.121h-0.052c-3.946,0-7.061,3.103-7.092,7.075c-0.025,3.977,3.067,7.111,7.044,7.137h0.053
		c3.957,0,7.075-3.087,7.106-7.028c0.01-1.919-0.714-3.719-2.043-5.068C226.157,65.885,224.377,65.125,222.464,65.121
		 M222.413,68.585v-0.191l0.025,0.191c0.967,0.005,1.882,0.393,2.565,1.097c0.683,0.698,1.055,1.618,1.05,2.591
		c-0.01,1.981-1.655,3.595-3.667,3.595c-1.996-0.011-3.61-1.65-3.599-3.646C218.807,70.219,220.426,68.585,222.413,68.585"/>
	<path fill="#333333" d="M243.416,76.08l-4.365-0.036l0.072-10.049c0-0.15-0.062-0.295-0.171-0.404
		c-0.103-0.107-0.243-0.16-0.388-0.17l-2.291-0.016c-0.306,0-0.559,0.248-0.559,0.559l-0.093,12.712
		c0,0.146,0.057,0.285,0.155,0.394c0.103,0.108,0.248,0.171,0.402,0.171l7.216,0.052h0.011c0.299,0,0.553-0.249,0.553-0.559
		l0.021-2.089c0-0.15-0.058-0.29-0.161-0.394C243.72,76.136,243.576,76.08,243.416,76.08"/>
	<path fill="#333333" d="M254.969,65.544l-4.68-0.041c-0.301,0-0.549,0.258-0.549,0.563l-0.093,12.708
		c0,0.149,0.057,0.294,0.17,0.402c0.099,0.109,0.233,0.155,0.367,0.16l4.687,0.037h0.052c3.796,0,6.904-3.088,6.94-6.889
		c0.006-1.831-0.709-3.569-2.007-4.889C258.554,66.289,256.816,65.554,254.969,65.544 M253.113,68.741l1.645,0.021
		c0.988,0,1.883,0.389,2.535,1.081c0.641,0.684,0.986,1.619,0.986,2.617c-0.015,2.094-1.541,3.677-3.572,3.677l-1.646-0.01
		L253.113,68.741z M254.923,79.172L254.923,79.172v0.005V79.172z"/>
	<path fill="#333333" d="M276.583,65.694l-7.954-0.057c-0.311,0-0.554,0.254-0.563,0.564l-0.089,12.701
		c0,0.141,0.058,0.285,0.155,0.394c0.109,0.108,0.253,0.166,0.403,0.166l7.943,0.062h0.012c0.31,0,0.553-0.248,0.558-0.559
		l0.017-2.089c0-0.146-0.058-0.285-0.16-0.394c-0.1-0.113-0.243-0.171-0.404-0.181l-5.11-0.021l0.012-2.203l4.184,0.021
		c0.305,0,0.563-0.243,0.563-0.554l0.016-2.084c0-0.146-0.063-0.295-0.16-0.404c-0.114-0.103-0.249-0.17-0.398-0.17l-4.185-0.021
		l0.01-1.996l5.131,0.046c0.311,0,0.56-0.258,0.564-0.559l0.015-2.095c0-0.145-0.051-0.295-0.154-0.393
		C276.883,65.761,276.728,65.694,276.583,65.694"/>
	<path fill="#333333" d="M294.913,65.829l-2.312-0.025c-0.306,0-0.56,0.253-0.56,0.563L292,72.733l-7.354-7.173h-0.564
		c-0.305,0-0.563,0.243-0.563,0.532l-0.067,12.92c0,0.14,0.052,0.29,0.16,0.397c0.104,0.109,0.249,0.171,0.397,0.171l2.281,0.011
		c0.312,0,0.564-0.253,0.564-0.554l0.052-6.702l7.204,7.354c0.088,0.077,0.285,0.155,0.393,0.16h0.316
		c0.3,0,0.558-0.243,0.558-0.543l0.094-12.915c0.006-0.149-0.063-0.289-0.166-0.398C295.203,65.891,295.052,65.829,294.913,65.829
		 M294.82,79.643L294.82,79.643v0.01V79.643z"/>
	<path fill="#333333" d="M317.287,69.082c0.9,0.005,1.795,0.357,2.446,0.937c0.207,0.217,0.548,0.217,0.755,0.005l1.51-1.536
		c0.114-0.113,0.177-0.263,0.171-0.419c0-0.15-0.066-0.294-0.19-0.403c-1.381-1.282-2.851-1.861-4.765-1.872h-0.051
		c-3.905,0-7.101,3.176-7.127,7.075c-0.025,3.905,3.149,7.111,7.075,7.143h0.057c1.826,0,3.471-0.657,4.764-1.888
		c0.218-0.223,0.232-0.59,0.03-0.797l-1.479-1.593c-0.176-0.207-0.569-0.232-0.786-0.046c-0.626,0.538-1.536,0.853-2.446,0.853
		c-0.978-0.005-1.893-0.397-2.555-1.106c-0.652-0.698-1.004-1.619-1.004-2.617C313.708,70.722,315.27,69.082,317.287,69.082"/>
	<path fill="#333333" d="M331.065,66.083l-2.308-0.021c-0.294,0-0.558,0.264-0.558,0.564l-0.093,12.703
		c0,0.144,0.062,0.288,0.165,0.397c0.104,0.104,0.248,0.165,0.393,0.165l2.302,0.021c0.306,0,0.564-0.26,0.574-0.56l0.088-12.702
		c0-0.149-0.062-0.295-0.166-0.402C331.355,66.144,331.209,66.083,331.065,66.083"/>
	<path fill="#333333" d="M349.41,70.551c0.01-1.159-0.44-2.25-1.272-3.078c-0.812-0.822-1.914-1.287-3.083-1.298l-5.74-0.041
		c-0.306,0-0.559,0.259-0.563,0.563l-0.083,12.707c0,0.15,0.057,0.295,0.16,0.399c0.104,0.107,0.243,0.165,0.393,0.165l2.286,0.021
		c0.3,0,0.564-0.264,0.564-0.563l0.036-4.691l0.999,0.005l2.471,4.986c0.063,0.145,0.244,0.295,0.476,0.295l2.562,0.015
		c0.212,0,0.393-0.098,0.491-0.264c0.108-0.176,0.108-0.393,0.01-0.579l-2.493-4.706C348.333,73.737,349.4,72.242,349.41,70.551
		 M346.038,70.587c-0.005,0.714-0.59,1.328-1.267,1.328l-2.648-0.021l0.021-2.596l2.643,0.016c0.331,0.005,0.646,0.139,0.885,0.383
		C345.914,69.94,346.038,70.25,346.038,70.587"/>
	<path fill="#333333" d="M362.06,69.397c0.9,0.006,1.795,0.357,2.446,0.941c0.207,0.202,0.554,0.212,0.765,0l1.501-1.541
		c0.119-0.114,0.176-0.258,0.17-0.414c0-0.149-0.071-0.3-0.19-0.408c-1.381-1.277-2.86-1.852-4.765-1.866h-0.046
		c-3.909,0-7.105,3.17-7.132,7.079c-0.01,1.898,0.719,3.693,2.053,5.038c1.329,1.34,3.113,2.084,5.027,2.095h0.052
		c1.826,0,3.471-0.652,4.764-1.889c0.218-0.212,0.232-0.584,0.03-0.786l-1.479-1.603c-0.171-0.202-0.569-0.222-0.776-0.042
		c-0.641,0.538-1.546,0.859-2.456,0.859c-0.978-0.011-1.893-0.403-2.555-1.107c-0.657-0.698-1.004-1.629-0.998-2.622
		C358.481,71.042,360.043,69.397,362.06,69.397"/>
	<path fill="#333333" d="M380.684,77.042l-4.376-0.026l0.073-10.054c0-0.145-0.057-0.285-0.171-0.393
		c-0.103-0.114-0.243-0.171-0.388-0.171l-2.286-0.016c-0.31,0-0.558,0.253-0.564,0.554l-0.093,12.713
		c0,0.149,0.057,0.289,0.166,0.397c0.104,0.109,0.243,0.166,0.394,0.166l7.22,0.046h0.005c0.305,0,0.559-0.243,0.559-0.548
		l0.016-2.095c0-0.15-0.057-0.284-0.155-0.394C380.98,77.114,380.839,77.042,380.684,77.042"/>
	<path fill="#333333" d="M395.497,69.759c0.311,0,0.559-0.253,0.559-0.558l0.016-2.101c0-0.14-0.052-0.284-0.155-0.394
		c-0.098-0.104-0.242-0.17-0.402-0.17l-7.95-0.063c-0.31,0-0.558,0.253-0.558,0.563l-0.094,12.708c0,0.145,0.057,0.284,0.155,0.393
		c0.098,0.109,0.243,0.171,0.398,0.177l7.954,0.052c0.305,0,0.559-0.249,0.559-0.555l0.026-2.095c0-0.144-0.063-0.284-0.16-0.392
		c-0.109-0.109-0.249-0.171-0.409-0.171l-5.115-0.031l0.015-2.198l4.18,0.026c0.311,0,0.563-0.254,0.563-0.56l0.011-2.089
		c0-0.149-0.058-0.29-0.155-0.403c-0.108-0.099-0.253-0.172-0.398-0.172l-4.184-0.024l0.021-1.992L395.497,69.759z"/>
</g>
<g>
	<path fill-rule="evenodd" clip-rule="evenodd" fill="#333333" d="M54.147,72.244c-0.048-0.606-0.341-0.863-0.953-0.937
		c-1.303-0.154-2.61-0.316-3.918-0.464c-1.47-0.172-2.454-1.164-2.568-2.644c-0.043-0.523-0.043-1.052-0.043-1.576
		c-0.005-14.225-0.015-38.615-0.015-38.623c-0.03-0.427-0.383-0.765-0.821-0.765h-3.769c-0.457,0-0.828,0.369-0.83,0.823
		c0,0-0.005,24.315-0.01,38.564c0,0.524,0,1.053-0.043,1.576c-0.114,1.479-1.098,2.472-2.57,2.644
		c-1.306,0.147-2.611,0.31-3.916,0.464c-0.615,0.073-0.905,0.33-0.95,0.937c-0.037,0.494-0.037,0.993-0.008,1.485
		c0.03,0.522,0.247,0.719,0.775,0.766c0.232,0.02,0.466,0.005,0.704,0.005c2.886,0.002,14.575,0.002,17.461,0
		c0.238,0,0.472,0.015,0.702-0.005c0.53-0.047,0.747-0.243,0.777-0.766C54.182,73.237,54.182,72.738,54.147,72.244"/>
	<path fill-rule="evenodd" clip-rule="evenodd" fill="#288982" d="M66.805,19.111H21.081c-0.586,0-0.956,0.247-0.956,0.825
		c0,0.202,0.202,11.171,0.278,12.014h0.005c0.025,0.631,0.542,1.13,1.176,1.13h0.81c0.543,0,0.996-0.371,1.134-0.868
		c0,0,0.021-0.075,0.024-0.093c0.183-0.785,1.067-4.898,1.708-6.339c0.674-1.516,1.922-2.218,3.412-2.384
		c1.673-0.185,28.87-0.185,30.544,0c1.487,0.166,2.738,0.868,3.41,2.384c0.641,1.441,1.528,5.554,1.707,6.339
		c0.004,0.018,0.024,0.093,0.024,0.093c0.139,0.497,0.591,0.868,1.133,0.868h0.815c0.634,0,1.147-0.499,1.174-1.13h0.005
		c0.074-0.843,0.28-11.812,0.28-12.014C67.764,19.358,67.392,19.111,66.805,19.111"/>
	<path fill-rule="evenodd" clip-rule="evenodd" fill="#333333" d="M54.137,71.131c-0.048-0.605-0.34-0.861-0.951-0.936
		c-1.303-0.154-2.607-0.314-3.914-0.463c-1.47-0.172-2.453-1.162-2.565-2.641c-0.043-0.523-0.043-1.051-0.043-1.574
		c-0.005-14.209-0.015-38.575-0.015-38.583c-0.03-0.426-0.383-0.763-0.821-0.763h-3.764c-0.456,0-0.827,0.368-0.83,0.821
		c0,0-0.005,24.291-0.01,38.525c0,0.523,0,1.051-0.042,1.574c-0.114,1.479-1.097,2.469-2.568,2.641
		c-1.304,0.148-2.607,0.309-3.912,0.463c-0.614,0.074-0.904,0.33-0.949,0.936c-0.036,0.494-0.036,0.992-0.008,1.484
		c0.031,0.521,0.248,0.719,0.774,0.764c0.232,0.021,0.467,0.004,0.704,0.004c2.883,0.004,14.56,0.004,17.443,0
		c0.237,0,0.471,0.018,0.7-0.004c0.529-0.045,0.746-0.242,0.777-0.764C54.171,72.124,54.171,71.625,54.137,71.131"/>
	<path fill-rule="evenodd" clip-rule="evenodd" fill="#288982" d="M66.781,18.055H21.106c-0.586,0-0.956,0.247-0.956,0.824
		c0,0.202,0.202,11.159,0.278,12.001h0.005c0.025,0.63,0.542,1.13,1.174,1.13h0.81c0.543,0,0.995-0.371,1.133-0.868
		c0,0,0.021-0.075,0.024-0.093c0.182-0.784,1.066-4.893,1.706-6.332c0.673-1.515,1.92-2.215,3.408-2.382
		c1.671-0.184,28.839-0.184,30.511,0c1.486,0.167,2.735,0.867,3.408,2.382c0.639,1.439,1.525,5.548,1.705,6.332
		c0.004,0.018,0.023,0.093,0.023,0.093c0.139,0.497,0.59,0.868,1.132,0.868h0.813c0.634,0,1.146-0.5,1.172-1.13h0.006
		c0.074-0.842,0.279-11.799,0.279-12.001C67.738,18.302,67.367,18.055,66.781,18.055"/>
	<g opacity="0.18">
		<g>
			<defs>
				<rect id="SVGID_1_" width="87.887" height="87.887"/>
			</defs>
			<clipPath id="SVGID_2_">
				<use xlink:href="#SVGID_1_"  overflow="visible"/>
			</clipPath>
			<path clip-path="url(#SVGID_2_)" fill="#333333" d="M87.887,87.887H0.001V0h87.886V87.887z M4.026,83.86h79.835V4.026H4.026
				V83.86z"/>
		</g>
	</g>
</g>
</svg>
