<?xml version="1.0" encoding="utf-8"?>
<!-- Generator: Adobe Illustrator 16.0.0, SVG Export Plug-In . SVG Version: 6.00 Build 0)  -->
<!DOCTYPE svg PUBLIC "-//W3C//DTD SVG 1.1//EN" "http://www.w3.org/Graphics/SVG/1.1/DTD/svg11.dtd">
<svg version="1.1" id="Layer_1" xmlns="http://www.w3.org/2000/svg" xmlns:xlink="http://www.w3.org/1999/xlink" x="0px" y="0px"
	 width="17.17px" height="15.59px" viewBox="-1.499 -0.709 17.17 15.59" enable-background="new -1.499 -0.709 17.17 15.59"
	 xml:space="preserve">
<g>
	<g>
		<g>
			<path fill="#504C4D" d="M10.366,6.906c0,1.811-1.47,3.279-3.28,3.279c-1.812,0-3.28-1.469-3.28-3.279
				c0-0.41,0.079-0.8,0.216-1.162H0v4.887c0,1.957,1.586,3.543,3.543,3.543h7.086c1.957,0,3.543-1.586,3.543-3.543V5.744H10.15
				C10.288,6.105,10.366,6.496,10.366,6.906z"/>
			<circle fill="#504C4D" cx="7.086" cy="6.906" r="1.969"/>
			<path fill="#504C4D" d="M10.629,0H3.73v3.695H2.955V0.053c-0.27,0.045-0.53,0.118-0.775,0.22v3.422H1.405V0.722
				C0.553,1.369,0,2.391,0,3.543V4.58h4.773c0.593-0.59,1.411-0.955,2.313-0.955c0.902,0,1.721,0.365,2.313,0.955h4.773V3.543
				C14.172,1.586,12.586,0,10.629,0z M12.213,3.351c0,0.219-0.18,0.398-0.398,0.398H10.62c-0.222,0-0.397-0.178-0.397-0.398V2.156
				c0-0.22,0.178-0.398,0.397-0.398h1.194c0.22,0,0.396,0.178,0.396,0.398v1.195H12.213z"/>
		</g>
	</g>
</g>
</svg>
