<?xml version="1.0" encoding="utf-8"?>
<!-- Generator: Adobe Illustrator 16.0.0, SVG Export Plug-In . SVG Version: 6.00 Build 0)  -->
<!DOCTYPE svg PUBLIC "-//W3C//DTD SVG 1.1//EN" "http://www.w3.org/Graphics/SVG/1.1/DTD/svg11.dtd">
<svg version="1.1" id="Layer_1" xmlns="http://www.w3.org/2000/svg" xmlns:xlink="http://www.w3.org/1999/xlink" x="0px" y="0px"
	 width="17.17px" height="15.59px" viewBox="0.082 -0.932 17.17 15.59" enable-background="new 0.082 -0.932 17.17 15.59"
	 xml:space="preserve">
<rect x="0.082" y="-0.932" display="none" fill="#504C4D" width="17.17" height="15.59"/>
<path fill="#504C4D" d="M15.397,3.426c0.006,0.148,0.01,0.298,0.01,0.449c0,4.59-3.492,9.881-9.878,9.881
	c-1.961,0-3.786-0.575-5.323-1.562c0.272,0.031,0.548,0.05,0.829,0.05c1.627,0,3.125-0.558,4.312-1.487
	c-1.52-0.027-2.802-1.031-3.244-2.412C2.313,8.386,2.53,8.408,2.754,8.408c0.317,0,0.623-0.044,0.915-0.123
	C2.081,7.967,0.884,6.563,0.884,4.881V4.837c0.469,0.26,1.003,0.417,1.573,0.435c-0.932-0.623-1.544-1.685-1.544-2.89
	c0-0.637,0.172-1.232,0.47-1.745c1.712,2.1,4.271,3.482,7.156,3.627C8.481,4.011,8.45,3.745,8.45,3.473
	C8.45,1.554,10.004,0,11.922,0c0.998,0,1.9,0.422,2.533,1.096c0.793-0.155,1.535-0.445,2.207-0.843
	c-0.26,0.812-0.813,1.491-1.527,1.922c0.701-0.084,1.371-0.271,1.994-0.547C16.665,2.324,16.075,2.936,15.397,3.426"/>
</svg>
