<?xml version="1.0" encoding="utf-8"?>
<!-- Generator: Adobe Illustrator 16.0.0, SVG Export Plug-In . SVG Version: 6.00 Build 0)  -->
<!DOCTYPE svg PUBLIC "-//W3C//DTD SVG 1.1//EN" "http://www.w3.org/Graphics/SVG/1.1/DTD/svg11.dtd">
<svg version="1.1" id="Layer_1" xmlns="http://www.w3.org/2000/svg" xmlns:xlink="http://www.w3.org/1999/xlink" x="0px" y="0px"
	 width="14.997px" height="14.998px" viewBox="0 0 14.997 14.998" enable-background="new 0 0 14.997 14.998" xml:space="preserve">
<g>
	<path d="M10.702,9.413l4.295,4.296l-1.288,1.289l-4.257-4.297v-0.664L9.178,9.803c-1.042,0.886-2.252,1.327-3.632,1.327
		c-1.536,0-2.845-0.539-3.925-1.62S0,7.121,0,5.585S0.54,2.734,1.621,1.64C2.701,0.547,3.997,0,5.507,0
		c1.536,0,2.844,0.547,3.925,1.64c1.08,1.094,1.621,2.409,1.621,3.945c0,1.38-0.443,2.591-1.328,3.632l0.273,0.195H10.702z
		 M2.832,8.299c0.742,0.742,1.646,1.113,2.714,1.113c1.067,0,1.979-0.371,2.734-1.113c0.755-0.742,1.133-1.646,1.133-2.714
		c0-1.067-0.378-1.979-1.133-2.734C7.524,2.096,6.613,1.718,5.546,1.718c-1.068,0-1.973,0.378-2.714,1.133
		C2.089,3.606,1.718,4.518,1.718,5.585C1.718,6.653,2.089,7.557,2.832,8.299z"/>
</g>
</svg>
