<?xml version="1.0" encoding="utf-8"?>
<!-- Generator: Adobe Illustrator 16.0.0, SVG Export Plug-In . SVG Version: 6.00 Build 0)  -->
<!DOCTYPE svg PUBLIC "-//W3C//DTD SVG 1.1//EN" "http://www.w3.org/Graphics/SVG/1.1/DTD/svg11.dtd">
<svg version="1.1" id="Layer_1" xmlns="http://www.w3.org/2000/svg" xmlns:xlink="http://www.w3.org/1999/xlink" x="0px" y="0px"
	 width="17.443px" height="15.846px" viewBox="0 0 17.443 15.846" enable-background="new 0 0 17.443 15.846" xml:space="preserve">
<g>
	<g>
		<path fill="#fff" d="M15.223,7.198l-0.68-5.053c-0.064-0.454-0.389-0.778-0.842-0.842l-5.053-0.68C8.357,0.59,8.033,0.687,7.838,0.914
			L0.292,8.429c-0.389,0.389-0.389,1.004,0,1.393l5.733,5.733c0.388,0.389,1.004,0.389,1.393,0l7.547-7.547
			C15.159,7.813,15.256,7.521,15.223,7.198z M9.93,5.916c-0.898-0.898-0.898-2.302,0-3.2c0.898-0.898,2.303-0.898,3.2,0
			c0.898,0.898,0.898,2.302,0,3.2C12.233,6.814,10.772,6.814,9.93,5.916z"/>
	</g>
	<g>
		<path fill="#fff" d="M12.272,4.141l-0.979-0.079c0.007-0.079,0.174-1.947,1.705-3.132c1.102-0.853,2.597-1.121,4.444-0.798L17.274,1.1
			c-1.564-0.273-2.801-0.069-3.676,0.607C12.407,2.629,12.274,4.126,12.272,4.141z"/>
	</g>
	<g>
		<circle fill="#fff" stroke="aea592" cx="11.538" cy="4.269" r="1.011"/>
	</g>
</g>
</svg>
